<svg xmlns="http://www.w3.org/2000/svg" viewBox="0 0 76 56.70000076293945">
  <path d="M29.8,0v5c-7.3,2-13,5.6-17.1,10.8C8.6,20.8,6.5,26,6.5,31.1c0,4.4,1.5,6.5,4.4,6.5c0.6,0,1.5-0.2,2.7-0.5
	c1-0.3,2-0.5,2.9-0.5c3.1,0,5.7,0.9,7.8,2.6c2.1,1.7,3.1,4,3.1,6.9c0,3-1,5.6-3,7.5c-2,2-4.6,3-7.8,3c-4.9,0-8.9-2.2-12-6.5
	C1.5,45.9,0,40.8,0,35c0-8.4,2.7-15.8,8-22.1C13.4,6.5,20.6,2.2,29.8,0z
M76,0v5c-7.3,2-13,5.6-17.1,10.8c-4.1,5.1-6.1,10.3-6.1,15.4c0,4.4,1.5,6.5,4.4,6.5c0.6,0,1.5-0.2,2.7-0.5
	c1-0.3,2-0.5,2.9-0.5c3.1,0,5.7,0.9,7.8,2.6c2.1,1.7,3.1,4,3.1,6.9c0,3-1,5.6-3,7.5c-2,2-4.6,3-7.8,3c-4.9,0-8.9-2.2-12-6.5
	c-3.1-4.3-4.6-9.4-4.6-15.2c0-8.4,2.7-15.8,8-22.1C59.6,6.5,66.9,2.2,76,0z" stroke="#65934a" stroke-width="0.1" fill="#65934a"/>
</svg>