<svg xmlns="http://www.w3.org/2000/svg" viewBox="0 -0.014999999664723873 48.215660095214844 51.73099899291992">
  <path d="M47.7,26.7c-0.1-4.7-0.1-9.4-0.1-14.1c0-1.5,0-2.9,0-4.4c0,0,0-2.8,0-2.8c0-0.1,0-0.3,0-0.4c0-1.1,0-2.2-0.1-3.3
		c0-0.3-0.1-0.7-0.3-0.9c-0.4-0.6-1.1-0.7-1.7-0.7c-2.7-0.1-5.3,0-8,0H5.9C5.8,0,5.6,0,5.5,0C5.1,0,4.8,0,4.4,0l1.2,0
		C4.3-0.1,2.9,0.3,2,1.2C0.8,2.3,0.3,3.9,0.1,5.4c0,0,0,0.1,0,0.1c0,2.9,0,5.8,0,8.7c0,7.5,0,15.2-0.1,22.8c0,1.8,0.3,3.7,0.6,5.5
		c0.4,2.5,0.9,5,0.5,7.7c0,0.3,0,0.6,0.2,0.9c0.3,0.3,0.7,0.5,1.2,0.5c3.5,0.1,6.6,0.1,9.4,0c1.1,0,1.7-0.6,1.7-1.8c0-5,0-10,0-15
		c0-1.1-0.5-1.6-1.7-1.8c-0.4,0-0.8,0-1.2,0c-0.6,0-1.2,0-1.8-0.1c-0.6-0.1-0.8-0.7-1.1-1.3c-0.1-0.3-0.3-0.6-0.5-1l-0.6-1h1.2
		c0.6,0,1.1,0,1.5,0l0.1,0c1,0,1.8,0,2.6,0c0.6-0.1,1.2-0.4,1.4-0.8c0.1-0.2,0.1-0.3,0-0.4c-1.3-2.3-1.1-4.7-1-7
		c0.1-1.1,0.2-2.3,0-3.4c-0.1-1,0.2-1.9,0.6-2.8l0.1-0.2c0.9-2.5,2.7-4,4.6-5.3c1.9-1.2,3.7-1.2,5.6-1.1c0.6,0,1.3,0.1,1.9,0l0.9,0
		l-0.2,0.9c-0.1,0.3-0.1,0.5-0.1,0.8c-0.1,0.6-0.2,1.1-0.6,1.4L25,11.9c-1.1,0.6-2.3,1.3-3.6,1.6c-2.1,0.5-2.7,2.2-3.4,3.9
		c-0.7,1.8-1.4,4.2-1,6.7c0.2,1.1,0.5,2.2,0.8,3.4c0.1,0.4,0.2,0.7,0.3,1.1l4.9,0.3l0,0.7c-0.2,3.4-2.5,3.4-4,3.5
		c-0.4,0-0.7,0-1.1,0.1c0.1,1.8,0.1,3.5,0,5.2c-0.1,3.8-0.1,7.4,0.9,11.1c0.6,1.9,0.6,2.2,2.5,2.2c5.4,0,10.9,0,15.7,0l0.3,0
		c0.6,0,1.1,0,1.7,0c1.7,0,3.5,0.1,5.2-0.2c0.9-0.1,2.7-0.3,3.2-1.3c0.1-0.3,0.2-0.6,0.2-1c0.3-2.7,0.7-5.5,0.6-8.2
		c-0.1-2.4-0.3-4.7-0.4-7.1C47.8,31.5,47.7,29.1,47.7,26.7z M45.9,48.5l-0.5,0.1c-5.7,1.6-11.1,1.5-16.9,1.4c-1.8,0-3.8,0-5.7,0
		l-0.4,0l-2.7-3.5V35.2l0.4-0.2c0.2-0.1,0.4-0.2,0.6-0.2c0.4-0.2,0.8-0.3,1.1-0.5c0.3-0.2,0.6-0.4,0.9-0.5c0.8-0.4,1.6-0.8,1.7-1.3
		c0.4-1.2,0.4-2.9,0-4.5c-0.1-0.6-1-1-2.1-1c-3.1-0.2-3.7-1.1-3.8-3.9c-0.2-5.7,2.6-8.8,8.9-9.7V7c-1.1,0.1-2.1,0.1-3.1,0.1
		c-2,0-3.9-0.1-5.9,0.8c-4.2,1.8-7.4,6-7.5,9.8c0,2.2,0,4.3,0,6.5l0,3.5l-0.6,0.1C6.1,28.2,6,28.2,6,33.8l4.9,1.4v14.1l-0.4,0.2
		c-0.4,0.2-0.7,0.3-1.1,0.5c-0.8,0.4-1.6,0.7-2.5,1c-0.3,0.1-0.7,0.2-1.1,0.2c-0.7,0-1.3-0.2-1.9-0.6C3.2,50,2.7,49,2.6,48
		c-0.1-1.3-0.2-2.7-0.3-4l0-0.2C2,39.9,1.7,35.8,1.7,31.9C1.6,25,1.6,18.1,1.6,11.4c0-1.4,0-2.7,0-4.1c0-1.2,0-2.5,0.5-3.7
		c0.3-0.8,1-1.3,1.8-1.5c0.7-0.2,1.4-0.2,2-0.2c0.7,0,1.4-0.1,2-0.1c1.1,0,2.1-0.1,3.2-0.1c2.6-0.1,5.1-0.1,7.7-0.1
		c2.9,0,5.8,0,8.7,0c3,0,5.9,0,8.9,0.1c1.4,0,2.8,0.1,4.2,0.1c0,0,0,0,0.1,0c0.6,0.2,1.3,0.1,2,0.1c0.7-0.1,1.5-0.1,2.2-0.1
		c0.3,0,0.7,0.1,0.8,0.4c0.1,0.2,0.1,0.4,0.1,0.6c0.1,1.8,0.1,3.7,0.1,5.5V48.5z
" fill="#000000"/>
</svg>