<svg xmlns="http://www.w3.org/2000/svg" viewBox="1651.768310546875 182.02633666992188 110.243896484375 96.4419937133789">
  <path d="M1758.6,193.1c0.8,0.6,1.6,1.1,2.3,1.8c1.9,1.9,1.3,4-1.3,4.6c-1.5,0.3-3.2,0.4-4.8,0.3c-1,0-1.7,0.2-2.4,1
		c-2.5,2.6-5.6,4.3-9.2,4.6c-1.5,0.1-3-0.2-4.4-0.5c-0.6-0.1-1-0.2-1.5,0.2c-3.4,2.6-7.2,3.2-11.3,1.8c-0.8-0.3-1.4-0.1-2,0.4
		c-2.9,2.5-6.3,2.9-9.9,2c-0.9-0.2-1.6-0.1-2.4,0.6c-1.1,1.1-2.4,2.1-3.8,2.9c-1.6,1-3.3,0.7-4.8-0.4c-0.3-0.2-0.6-0.4-0.9-0.6
		c-1.4-0.9-1.4-0.9-2.3,0.5c-1.9,2.9-6.2,4.8-9.9,3c-1.4,2.2-3.1,4-5.6,5s-4.9,1-7.3-0.3c-2.9,2.5-3.2,2.5-4.9,0.6
		c0.5-0.6,0.9-1.2,1.5-2c-0.7-0.4-1.2-0.7-1.8-1.1c-0.5-0.3-1-0.6-1.4-1c-1-1-1-1.7,0-2.8c0.5-0.5,1-1.1,1.5-1.6
		c0.8-0.8,1-1.5,0.1-2.3c-1-0.9-1.8-2-2.8-2.8c-0.9-0.8-1-1.4-0.2-2.3c2.5-2.6,6.8-3,9.8-0.9c0.1,0.1,0.3,0.1,0.5,0.1
		c1-2,2.6-3.7,4.6-4.7c2.2-1.1,4.3-1.3,6.5,0.3c0.3-0.4,0.5-0.8,0.8-1.2c1.3-2,3-3.3,5.3-3.6c2-0.3,4-0.6,5.9,0.4
		c0.6,0.3,1,0,1.5-0.4c2.7-2.9,6-4.3,10-3.4c1.2,0.3,2,0.1,2.9-0.7c2.8-2.1,6-3.3,9.6-2.3c0.9,0.3,1.7,0.9,2.7,1.4
		c1.3-1.7,3.2-3,5.4-3.5c2.4-0.5,4.5,0.1,6,2c1.4-1.3,2.6-2.6,4-3.7c2.6-1.9,5.5-2.9,8.7-2.3c0.5,0.1,1,0.3,1.4,0.5
		c0.9,0.4,1,1.1,0.6,1.9c-0.3,0.6-0.6,1.1-0.8,1.7c-0.5,1.2-0.3,1.7,0.8,2.3c0.7,0.4,1.4,0.8,2.1,1.3
		C1759.2,191,1759.3,191.4,1758.6,193.1z M1732.7,199.3c0.5-0.1,0.8-0.2,1.1-0.2c0.5,0,0.9,0,1.4,0c1.4,0.1,1.7,0,2.2-1.3
		c1-2.4,2-4.8,2.9-7.2c0.2-0.4,0-1.1-0.3-1.5c-2.2-2.6-5.6-2.8-8.1-0.5c-2.5,2.2-4.1,5.2-5.8,8c-1.5,2.5-2.6,5.2-4.2,7.6
		c-1.6,2.5-3.7,4.6-7.1,3.8c0,0-0.1,0.1-0.2,0.3c0.7,0.2,1.4,0.3,2.1,0.5c2.9,0.6,5.6-0.4,7.3-2.9c0.6-0.9,1.2-1.8,1.8-2.7
		c0.6-0.8,1.3-1.7,2.7-2.1c-0.8,1.2-1.4,2.2-2.1,3.1c3.5,1.6,9.2-1.1,9.1-4.1C1734.7,199.5,1733.6,200.5,1732.7,199.3z
		 M1754.8,183.7c-0.9-0.6-2-0.7-3.1-0.7c-4.2,0.2-7.4,2.2-9.4,5.9c-1.3,2.4-2.2,5.1-3.2,7.7c-0.9,2.4-2,4.8-4.1,6.5
		c-2.3,1.9-4.7,3.2-7.8,2.2c-0.3-0.1-0.7,0-1,0c0.4,0.4,0.9,0.6,1.3,0.7c5,1,9-0.4,11.6-4.9c1.5-2.5,3.7-3.8,6.3-4.6
		c1.3-0.4,2.7-0.5,3.8,0.7c1-1.2,1.9-2.4,2.8-3.6c1-1.2,1.9-2.4,2.9-3.7C1752.5,188,1754.1,185.9,1754.8,183.7z M1702,209.6
		c1.6,2.4,3.3,3,5.7,2.2c2.2-0.7,3.6-2.4,5-4c1.3-1.5,2.5-3.2,3.9-4.6c1.6-1.6,3.4-3,5.9-2.9c0.3,0,0.6-0.3,0.8-0.6
		c1.6-2.6,3.2-5.3,4.8-8c0.4-0.7,0.4-1.3-0.4-1.7c-0.5-0.3-1-0.6-1.5-0.8c-3.4-1-8,0.7-9.8,3.7c-1.2,2-2.3,4.2-3.3,6.3
		c-1.3,2.7-2.3,5.5-3.7,8.2c-1.2,2.4-2.9,3-5.6,2.5C1703.2,209.8,1702.6,209.7,1702,209.6z M1691,213.7c2,1.5,4,1.6,5.4,0.1
		c1.5-1.5,2.8-3.3,4.2-4.9c0.6-0.7,1.4-1.4,2.1-2.1c-0.2,1.7,0.2,2.2,1.9,2.3c2.4,0.2,4.5-2.2,5.3-4.5c0.4-1.1,0-2.5,1.5-3.1
		c0.1,0,0.1-0.4,0.2-0.6c0.4-1,0.7-1.9,1.1-2.9c0.7-1.8,1.5-3.6,2.2-5.4c-1.9-0.9-3.7-0.9-5.6-0.3c-2.5,0.9-4.2,2.8-5.7,4.8
		c-1.9,2.6-2.8,5.6-4,8.5C1698,209.7,1695.9,213.1,1691,213.7z M1702.6,196.3c-1.1-0.2-2.2-0.4-3.3-0.6c-3.3-0.6-5.9,0.6-7.3,3.6
		c-0.8,1.8-1.3,3.7-1.9,5.6c-1,3-1.9,6.1-3,9.1c-1.2,3.1-3.3,5-6.8,4.7c-0.6,0-1.3,0.1-2.1,0.2c1.2,0.9,1.9,1.2,3.1,1.1
		c2.5-0.2,4.4-1.4,5.9-3.3c1.3-1.7,2.6-3.5,3.9-5.2c0.1-0.1,0.2-0.1,0.5-0.2c0,0.5,0.1,0.8,0.1,1.3c2.5-0.4,4.4-1.6,5.5-3.9
		c-0.4-0.2-0.6-0.3-1.2-0.7c1.5-0.1,2.1-1,2.5-2c1.3-2.9,2.6-5.8,3.9-8.8C1702.6,196.9,1702.6,196.6,1702.6,196.3z M1682.5,211.3
		c-0.1-0.1-0.1-0.2-0.2-0.3c0.5-0.4,0.9-0.8,1.4-1.1c1-0.5,2.1-0.9,3.2-1.1c0.8-0.2,1.3-0.7,1.5-1.4c0.7-2,1.3-3.9,1.8-5.9
		c0.1-0.4-0.2-1.1-0.5-1.3c-0.9-0.4-1.8-0.8-2.7-0.9c-2.1-0.2-3.5,1-4.7,2.6c-1.9,2.5-3,5.4-3.9,8.4c-0.3,1.2-0.4,2.6-0.9,3.7
		c-0.7,1.5-1.6,3-2.4,4.4c-0.3,0.6-0.6,1.3-1.1,2.2c3.1-0.9,3.4-4.1,5.6-5.6c-0.1,0.4-0.1,0.5-0.1,0.6c-0.2,0.5-0.3,1-0.5,1.5
		c0.6,0.2,1.1,0.4,1.7,0.5c3.5,0.2,6.8-4.4,6.6-8C1685.4,209.2,1684.1,210.7,1682.5,211.3z M1676,215.3c0.2-0.4,0.3-0.5,0.4-0.7
		c0.8-2.8,1.7-5.6,2.4-8.5c0.1-0.4-0.2-1-0.5-1.3c-1.7-1.9-6.8-1.4-8.6,0.8C1674,209.6,1674.5,211.1,1676,215.3z M1757.8,191.4
		c-1.2-0.8-2-0.6-3.1,0.6c-1.5,1.9-3,3.8-4.5,5.7c-1.9,2.5-4.3,4.3-7.6,4.3c-1.2,0-2.4,0.7-3.6,1.1c0,0.2,0.1,0.3,0.1,0.5
		c2.6,0.7,5.3,1.1,7.9-0.1c0.4-0.2,0.8-0.4,1-0.6c2.3-2.3,4.6-4.5,6.7-6.8C1756.1,194.8,1757.3,193.3,1757.8,191.4z M1754.4,198.6
		c0,0.1,0.1,0.3,0.1,0.4c1.8-0.1,3.5,0.1,5.2-0.6c0.6-0.3,1.2-0.7,1.1-1.5c-0.1-0.9-0.5-1.6-1.4-1.9c-0.6-0.2-1.3-0.4-2-0.6
		C1756.4,195.8,1755.4,197.2,1754.4,198.6z M1748.9,197.7c-4-0.7-8.3,1.3-8.4,3.9C1743.8,201.4,1746.5,200.3,1748.9,197.7z
		 M1721.9,201.6c-3.1,0.7-5.6,2-7,4.9C1717.1,207.8,1721.3,204.9,1721.9,201.6z M1674.2,217.4c0.7-2.1,0.2-3.7-0.6-5.5
		c-0.8,0.7-1.6,1.3-2.1,1.9c-0.7,0.7-0.6,1.5,0.2,2.1C1672.4,216.6,1673.2,216.9,1674.2,217.4z
M1730.7,220.2c1,0.3,1.9,0.5,2.8,0.8c2.4,1.1,2.7,3.2,0.5,4.7c-1.3,0.9-2.8,1.5-4.3,2.1c-0.9,0.4-1.5,0.8-1.9,1.8
		c-1.3,3.4-3.5,6.1-6.8,7.7c-1.3,0.7-2.8,0.9-4.3,1.2c-0.6,0.1-1,0.2-1.3,0.8c-2.2,3.7-5.5,5.7-9.8,5.9c-0.9,0-1.3,0.5-1.7,1.1
		c-1.8,3.4-4.8,5-8.5,5.6c-1,0.1-1.5,0.5-2,1.4c-0.7,1.4-1.5,2.8-2.4,4.1c-1.1,1.5-2.8,1.9-4.6,1.4c-0.3-0.1-0.7-0.2-1-0.3
		c-1.6-0.4-1.6-0.4-2,1.3c-0.7,3.4-4,6.8-8.1,6.4c-0.5,2.5-1.4,4.9-3.3,6.7c-2,1.9-4.2,2.8-6.9,2.5c-1.8,3.4-2.1,3.6-4.3,2.4
		c0.2-0.7,0.4-1.5,0.7-2.4c-0.8-0.1-1.4-0.2-2.1-0.3c-0.6-0.1-1.1-0.2-1.6-0.4c-1.3-0.6-1.6-1.2-1.1-2.6c0.2-0.7,0.5-1.4,0.8-2
		c0.4-1,0.4-1.8-0.8-2.2c-1.2-0.5-2.4-1.1-3.7-1.6c-1.2-0.4-1.5-0.9-1-2.1c1.3-3.3,5.2-5.4,8.7-4.5c0.1,0,0.3,0,0.6-0.1
		c0.2-2.3,1-4.4,2.5-6.1c1.6-1.9,3.5-2.9,6.2-2.1c0.1-0.5,0.2-1,0.3-1.4c0.4-2.3,1.6-4.1,3.6-5.3c1.7-1,3.5-2,5.7-1.8
		c0.7,0.1,1-0.3,1.2-1c1.5-3.7,4-6.2,8.1-6.9c1.2-0.2,1.8-0.7,2.5-1.7c1.9-3,4.3-5.3,8-5.7c0.9-0.1,1.9,0.2,3,0.3
		c0.6-2.1,1.8-3.9,3.8-5.2c2-1.4,4.2-1.6,6.3-0.4c0.8-1.7,1.4-3.4,2.4-4.9c1.7-2.7,4-4.8,7.3-5.4c0.5-0.1,1-0.1,1.5-0.1
		c1,0,1.3,0.7,1.3,1.6c0,0.6-0.1,1.2-0.1,1.9c0,1.3,0.3,1.6,1.6,1.9c0.8,0.2,1.6,0.2,2.4,0.4C1730.5,218,1730.8,218.4,1730.7,220.2z
		 M1709,235.6c0.4-0.3,0.7-0.5,1-0.6c0.4-0.2,0.9-0.4,1.3-0.5c1.4-0.4,1.5-0.6,1.6-2.1c0-2.6,0.1-5.2,0-7.7c0-0.4-0.5-1.1-0.9-1.3
		c-3-1.5-6.2-0.5-7.7,2.6c-1.5,3-1.9,6.3-2.4,9.6c-0.4,2.9-0.5,5.8-1.1,8.6c-0.6,2.9-1.7,5.6-5.2,6.2c0,0,0,0.1-0.1,0.3
		c0.8-0.1,1.5-0.2,2.2-0.3c3-0.5,5-2.4,5.7-5.4c0.2-1.1,0.4-2.1,0.7-3.2c0.3-1,0.5-2.1,1.7-3c-0.3,1.4-0.5,2.5-0.8,3.7
		c3.9,0.2,8.1-4.4,6.9-7.2C1710.9,235,1710.3,236.4,1709,235.6z M1723.7,212.9c-1.1-0.2-2.1,0.1-3.1,0.5c-3.8,1.8-6.1,4.8-6.5,9
		c-0.3,2.8-0.1,5.6-0.1,8.3c0,2.6-0.1,5.2-1.3,7.5c-1.4,2.6-3.2,4.7-6.4,5c-0.3,0-0.6,0.3-1,0.4c0.5,0.2,1,0.3,1.5,0.2
		c5-0.9,8.2-3.7,9-8.9c0.4-2.9,2-4.9,4.2-6.6c1.1-0.8,2.3-1.5,3.8-0.8c0.5-1.5,0.9-2.9,1.3-4.4s0.9-2.9,1.3-4.5
		C1723.1,217.7,1723.8,215.2,1723.7,212.9z M1684.4,256.6c2.3,1.6,4.2,1.5,6.1-0.1c1.8-1.5,2.4-3.6,3.1-5.6c0.7-1.9,1.1-3.9,1.9-5.7
		c0.9-2.1,2.1-4,4.4-4.9c0.2-0.1,0.4-0.6,0.5-0.9c0.5-3,1-6.1,1.5-9.2c0.1-0.8-0.1-1.3-1-1.4c-0.6-0.1-1.1-0.2-1.7-0.1
		c-3.5,0.4-7.2,3.6-7.7,7.1c-0.4,2.3-0.6,4.7-0.7,7.1c-0.2,3-0.1,6-0.4,8.9c-0.3,2.7-1.6,3.9-4.3,4.4
		C1685.5,256.3,1685,256.5,1684.4,256.6z M1675.7,264.5c2.4,0.6,4.3,0,5.1-2c0.8-2,1.4-4.1,2.1-6.1c0.3-0.9,0.8-1.8,1.1-2.7
		c0.4,1.7,1,2,2.6,1.5c2.3-0.8,3.4-3.7,3.2-6.1c-0.1-1.1-1-2.3,0.2-3.4c0.1-0.1,0-0.4,0-0.6c0-1,0-2.1,0-3.1c0-1.9,0-3.9,0-5.9
		c-2.1-0.2-3.8,0.5-5.3,1.9c-2,1.8-2.9,4.1-3.5,6.6c-0.8,3.1-0.5,6.3-0.5,9.4C1680.7,258.2,1680,262.1,1675.7,264.5z M1680,244
		c-1.1,0.2-2.2,0.4-3.3,0.6c-3.3,0.7-5.2,2.7-5.4,6.1c-0.1,1.9,0.2,3.9,0.3,5.9c0.2,3.2,0.6,6.4,0.6,9.6c0.1,3.3-1.2,5.8-4.6,6.9
		c-0.6,0.2-1.1,0.6-1.9,0.9c1.5,0.4,2.2,0.4,3.3-0.2c2.3-1.1,3.5-3,4.2-5.3c0.6-2.1,1.1-4.2,1.6-6.3c0-0.1,0.2-0.2,0.4-0.4
		c0.2,0.4,0.4,0.7,0.6,1.2c2.2-1.4,3.5-3.1,3.6-5.7c-0.4,0-0.7-0.1-1.3-0.2c1.4-0.7,1.5-1.7,1.6-2.8c0.1-3.2,0.3-6.4,0.4-9.6
		C1680.2,244.6,1680.1,244.3,1680,244z M1666.9,265.4c-0.1-0.1-0.2-0.1-0.3-0.2c0.3-0.5,0.5-1.1,0.9-1.5c0.8-0.8,1.6-1.6,2.6-2.2
		c0.7-0.5,1-1.1,0.9-1.8c-0.1-2.1-0.3-4.1-0.5-6.2c0-0.4-0.6-1-0.9-1c-1-0.1-2-0.1-2.9,0.2c-2,0.6-2.8,2.3-3.4,4.1
		c-0.9,3-0.8,6.1-0.5,9.2c0.1,1.3,0.6,2.6,0.5,3.8c0,1.7-0.4,3.4-0.6,5c-0.1,0.7-0.1,1.4-0.2,2.4c2.6-2,1.6-5.1,3.1-7.3
		c0.1,0.4,0.1,0.5,0.2,0.6c0,0.5,0.1,1.1,0.1,1.6c0.6-0.1,1.2,0,1.8-0.2c3.3-1.1,4.6-6.6,3.1-9.8
		C1668.8,262.5,1668.2,264.3,1666.9,265.4z M1662.4,271.6c0-0.4,0.1-0.6,0.1-0.8c-0.3-2.9-0.5-5.8-0.9-8.8c0-0.4-0.6-0.8-1-1
		c-2.2-1.2-6.8,1.2-7.7,3.9C1658.3,267.1,1659.4,268.2,1662.4,271.6z M1729.4,218.9c-1.4-0.2-2.1,0.2-2.6,1.7c-0.7,2.3-1.4,4.6-2,7
		c-0.8,3.1-2.4,5.5-5.5,6.9c-1.1,0.5-1.9,1.5-2.9,2.3c0.1,0.1,0.2,0.3,0.3,0.4c2.7-0.4,5.3-0.9,7.3-3c0.3-0.3,0.6-0.6,0.7-1
		c1.3-2.9,2.6-5.8,3.7-8.8C1729,222.7,1729.6,220.9,1729.4,218.9z M1728.9,226.8c0.1,0.1,0.2,0.2,0.3,0.3c1.6-0.7,3.3-1.2,4.6-2.5
		c0.5-0.5,0.9-1.1,0.4-1.8c-0.4-0.8-1-1.3-2-1.2c-0.7,0-1.3,0.1-2.1,0.2C1729.7,223.5,1729.3,225.2,1728.9,226.8z M1723.5,228
		c-4,0.8-7.2,4.3-6.4,6.8C1720.1,233.4,1722.2,231.4,1723.5,228z M1699.9,241.8c-2.6,1.8-4.5,3.9-4.7,7.2
		C1697.7,249.3,1700.5,245.1,1699.9,241.8z M1661.5,274.2c-0.2-2.2-1.2-3.5-2.6-4.9c-0.5,1-1,1.8-1.3,2.6c-0.3,0.9,0,1.6,1,1.9
		C1659.4,274.1,1660.4,274.1,1661.5,274.2z
" fill="#000000"/>
</svg>