<svg xmlns="http://www.w3.org/2000/svg" viewBox="1731.3961181640625 523.0121459960938 121.103759765625 98.09221649169922">
  <path d="M1748.5,597.4c-0.7-1-1.4-1.9-2-2.9c-1.1-1.8-1.4-3.8-1.3-5.9c0.1-3,0.8-6,1.9-8.8c2.1-5.7,4.9-11,7.7-16.3
		c1.8-3.3,3.3-6.7,5.5-9.8c2.5-3.5,5.4-6.7,8.3-9.8c3.5-3.7,7-7.3,10.8-10.7c2.5-2.3,5.4-4.1,8.2-6.2c0.4-0.3,0.8-0.6,1.2-1.1
		c-1.5,0.4-3.1,0.7-4.6,1.2c-6,2.1-11.9,4.2-17.9,6.2c-1.9,0.6-3.8,1.1-5.7,1.7c-1.4,0.5-2.7,1.3-4.1,1.9c-1.1,0.5-2.2,1.2-3.4,1.6
		c-2.3,0.8-4,2.3-5.5,4.2c-3.3,4.2-5.6,8.8-7.6,13.7c-0.9,2.1-1.8,4.2-2.6,6.3c-0.4,1.1-0.7,2.2-1,3.2c-0.1,0.2-0.2,0.3-0.3,0.5
		c-0.1,0-0.3,0-0.4,0c0-0.3-0.1-0.7,0-1c2.2-6.6,4.3-13.1,8.1-19c1.9-3,3.8-6.1,7-7.7c4.6-2.4,9.1-4.9,14.2-6.3c3-0.8,5.9-2.1,8.8-3
		c5.1-1.6,10.3-3,15.4-4.5c1.4-0.4,2.8-0.7,4.2-1.1c3.2-1.1,6.3-1,9.5,0c1.8,0.6,3.7,0.9,5.3,1.7c2,0.9,3.9,2.2,5.7,3.4
		c3.8,2.7,7.5,5.5,11.3,8.2c1,0.7,2,1.3,2.8,2.2c0.8,0.8,1.6,1,2.6,1c1.8-0.1,3.5,0,5.3,0c1.6,0,3.1-0.1,4.7-0.1c1,0,2-0.1,3,0
		c2,0.1,3.7,1,4.7,2.8c1.1,1.9,2.3,3.8,3.5,5.7c0.2,0.4,0.4,0.8,0.7,1.4c-0.4,0.1-0.7,0.3-1.1,0.4c-2.8,0.4-5.7,0.7-8.5,1
		c-0.8,0.1-1.3,0.4-1.1,1.3c0.6,2.8-0.2,5.5-0.9,8.2c-0.7,2.8-1.5,5.6-2.3,8.4c-0.3,1.1-0.4,2.1,0.5,3c0.5,0.5,0.9,1.3,1.3,1.9
		c1.9,2.6,1.8,5.2,0.2,7.9c-1.6,2.8-3.7,5.1-6,7.3c-3.1,3.2-6.1,6.5-9.7,9.1c-1.2,0.8-2.5,1.5-3.7,2.2c-0.8,0.4-1.2,1-1.2,2
		c-0.1,4-1.6,7.6-3.7,10.9c-1.3,2-3.4,3-5.3,4.3c-2,1.5-4.5,1.5-6.8,1.8c-4,0.6-8.1,1-12.1,1.2c-3.7,0.2-7.4,0.1-11.1-0.2
		c-2.7-0.2-5.1-1.4-7.2-3c-0.8-0.6-1.6-1.3-2.5-1.8c-2.3-1.3-3.7-3.5-5.1-5.6c-1.1-1.6-2.2-3.1-3.4-4.6c-0.2-0.3-0.6-0.6-1-0.7
		c-1.7-0.7-3.2-1.7-4.3-3.2c-0.5-0.7-1-0.9-2-0.8c-2.6,0.5-4.9-0.6-6.9-2c-4.3-2.9-8.4-6-12.5-9.2c-1.8-1.4-3.1-3.1-4-5.3
		c-0.7-1.7-0.9-3.4-0.5-5.2c0.5-2.3,1.2-4.6,1.8-6.9c0-0.1,0.2-0.2,0.5-0.4c0,0.4,0.1,0.7,0.1,0.9c-0.4,1.8-0.8,3.6-1.2,5.3
		c-1.1,4.4,0.6,7.9,3.9,10.6c2.8,2.4,5.9,4.4,8.8,6.6C1746.6,596.2,1747.5,596.8,1748.5,597.4c1.1,1.5,2.6,2.1,4.4,2.2
		C1751.4,598.8,1750,598.1,1748.5,597.4z M1825.3,572.2c0.2-0.4,0.4-0.8,0.7-1.1c2.2-2.4,4.3-4.8,5.8-7.6c1.3-2.4,2.5-4.8,3.8-7.1
		c0.6-1.1,1.4-2.1,2.2-3.3c-2.4,0.5-3.7,2.1-5.1,3.6c-4.4,4.7-8.6,9.6-13.3,14.1c-5.7,5.5-12.6,7.9-20.6,6.7
		c-3.2-0.5-6.4-1.2-9.6-1.9c-1.5-0.3-3.1,0-3.7,0.9c1.8,0.5,3.7,0.9,5.4,1.6c5.2,2.1,10.6,3,16.2,2.5c2-0.2,3.9-0.6,5.8-1.1
		c3.8-1.2,7.3-3.3,10.3-5.9c0.3-0.3,0.7-0.4,1.1-0.6c-0.8,0.8-1.6,1.7-2.5,2.4c-7.6,6-16.1,7.6-25.4,5.3c-0.4-0.1-0.7-0.1-1.4-0.1
		c2.2,2.2,4.4,3.9,6.8,5.2c3.5,1.9,7.2,3.3,11.4,3.3c2.8,0,5-1.1,6.5-3.3c1.5-2.1,2.8-4.2,4.2-6.3c2-3.2,3.6-6.6,4.9-10.2
		c-0.3,0.2-0.5,0.4-0.8,0.6C1827.2,570.7,1826.3,571.4,1825.3,572.2z M1850.8,549.7c-0.9-1.8-1.8-3.4-2.5-5
		c-0.9-2.2-2.5-3.1-4.8-3.1c-3.9,0-7.7-0.3-11.6-0.3c-4.7,0.1-9.3,0.8-13.8,2.4c-2.3,0.8-4.5,1.5-6.8,2.3s-4.7,1.4-6.9,2.5
		c-2.5,1.3-4.9,2.9-7.2,4.6c-3.9,2.8-7.9,5.4-12.5,7.1c-3.7,1.4-7.1,3.4-10.1,6c-7.1,6-11.4,13.5-13.3,22.6c-0.9,4.1-1,8.2,0.3,12.2
		c0.5,1.3,1.2,2.6,1.8,3.9c0.3-1.6,0.2-3.1,0.3-4.6c0.3-2.9,1.4-5.6,2.6-8.3c1.9-4.1,4.4-7.8,8.2-10.6c3.6-2.7,7.6-4.4,11.7-6.1
		c7.4-3,14.4-6.9,21.3-10.9c5.1-3,10.5-5.1,16-7.1c4-1.5,8.1-2.8,12.2-4.4c2.9-1.1,5.8-1.9,8.9-2.2
		C1846.6,550.3,1848.7,550,1850.8,549.7z M1807.5,526.9c-0.3-0.2-0.4-0.3-0.6-0.4c-2.1-0.7-4.1-1.7-6.2-2s-4.3-0.2-6.3,0.1
		c-2.9,0.6-5.4,2.1-7.8,3.8c-4.5,3.2-8.5,7-12.5,10.9c-4.7,4.7-9.1,9.6-12.9,15.1c-3.1,4.5-5.6,9.4-8.1,14.3
		c-1.5,3.1-2.9,6.2-4.5,9.2c-0.6,1.1-0.7,2.2-0.2,3.4c1,2.4,1.9,4.9,2.8,7.4c0.5,1.2,1,2.5,1.5,3.8c0.4-2.2,0.7-4.2,1.2-6.1
		c0.9-3.3,1.8-6.8,3.6-9.7c1.6-2.6,3.4-5.2,5.3-7.6c6.4-8.2,12.8-16.3,19.3-24.3c3.3-4.2,7-8,11.5-11
		C1798.1,530.8,1802.6,528.7,1807.5,526.9z M1768.7,589.1c1.2,0.4,1.8,0.7,2.5,0.8c2.7,0.4,5,1.6,7.2,3.2c5.7,4.3,12,7.3,19.1,8.7
		c4.1,0.8,8,0.1,11.5-2s6.1-5.1,8-8.7c0.3-0.6,0.6-1.2,0.9-1.7c-1.6,0.2-3.1,0.5-4.6,0.6c-4.1,0.2-7.8-1.3-11.2-3.4
		c-3.3-2-6.3-4.3-9.5-6.5c-3.6-2.5-7.3-3.3-11.5-1.6c-3.5,1.5-6.7,3.6-9.2,6.4C1770.8,586.1,1769.9,587.5,1768.7,589.1z
		 M1820.3,600.5c1.7-1,3.2-1.7,4.5-2.6c5.9-4.6,10.6-10.3,15-16.2c1.6-2.1,1.6-4.8-0.2-7.1c-1.4-1.8-1.6-1.8-3.3-0.2
		c-0.4,0.4-0.7,1-1.4,0.3c0.1-0.2,0.1-0.4,0.2-0.4c2.1-1.8,2.8-4.2,3.4-6.8c0.5-2.6,1.1-5.2,1.7-7.8c0.3-1.4,0.7-2.8,0.9-4.3
		c0.2-1-0.1-2-0.9-2.8c-0.2,0.2-0.4,0.3-0.5,0.5c-4.2,4.1-6.5,9.3-8,14.9c-0.4,1.3-0.8,2.5-1.3,4.1c-0.6-1.2-0.9-0.6-1.1-0.2
		c-0.3,0.6-0.4,1.4-0.8,2c-2.4,4-4.9,7.9-7.4,11.8c-0.7,1.1-1.5,2.3-2,3.5c-0.6,1.2,0,1.9,1.3,1.9c1.5,0,2.4-1.1,3-2.2
		c1.4-3,2.7-6.1,3.9-9.1c0.7-1.8,1.3-3.6,1.9-5.4c1.7,1,0,2.3,0.7,3.4c1.3-0.8,2.7-1.5,4.1-2.3c0.1,0.1,0.2,0.2,0.3,0.3
		c-0.2,0.3-0.3,0.8-0.5,1c-1.4,1-2.8,2.1-4.3,2.9c-1.1,0.6-1.8,1.5-2.2,2.7c-0.6,1.8-1.2,3.7-1.9,5.4c-0.7,1.7-1.6,3.4-3.6,4.1
		c-2,0.7-2,0.7-1.9,2.8c0,0.6,0,1.2,0.1,1.9C1820,597.5,1820.1,598.8,1820.3,600.5z M1791.5,601.1c-2-0.8-4-1.5-5.8-2.4
		c-3.3-1.7-6.5-3.7-9.7-5.5c-2.4-1.3-4.9-2.5-7.5-3.2c-1.8,3-3.1,6.1-3.7,9.4c-0.1,0.6-0.1,1.4,0,2c0.5,2.6,1.9,4.7,3.9,6.4
		c2.3,2,5,2.7,7.8,3.1c2.6,0.4,5.2,0.6,7.7,1.1c1,0.2,1.5-0.1,1.9-0.9c0.5-1,1-1.9,1.5-2.9C1788.8,605.9,1790.1,603.5,1791.5,601.1z
		 M1773.3,611.3c0,0.1-0.1,0.2-0.1,0.2c1.9,0.9,3.7,1.9,5.6,2.7c6.3,2.5,12.8,3.5,19.5,2.9c1.4-0.1,2.7-0.6,4-1.1c1-0.4,2-1.1,3-1.6
		c2.3-1.3,4.8-2.5,6.5-4.6c1.3-1.6,2.1-3.4,1.5-5.7c-7.1,0.9-13.8-1-20.7-2.3c-0.2,0.3-0.6,0.6-0.8,1.1c-1.7,3-3.4,6.1-5,9.1
		c-0.8,1.5-0.9,1.6-2.5,1.3C1780.6,612.5,1777,611.9,1773.3,611.3z M1778.7,550.9c1.6,0.2,2.8,0.5,3.9,0.5c3.5,0.1,7,0.2,10.4-0.1
		c2.5-0.2,5.1-0.3,7.5-1.8c2.1-1.3,4.4-2.3,6.6-3.4c0.7-0.4,1-0.8,0.8-1.6c-0.3-1.9-1-3.6-2.3-5c-1.7-1.7-4.6-2.7-6.4-1.9
		c-1.7,0.7-3.3,1.5-5,2.2c-2.5,1-5,2-7.7,2.3c-0.5,0-1.1,0.4-1.4,0.8c-1.5,1.7-2.9,3.4-4.3,5.1
		C1780.2,548.8,1779.6,549.7,1778.7,550.9z M1827.5,540.5c-4.1-3-8-5.9-11.9-8.8c-2.5-1.9-5.2-2.3-8.1-1.6c-1.7,0.4-3.3,1.1-5,1.8
		c-3.5,1.5-7,3-10.5,4.7c-2,1-3.8,2.5-5.2,4.7c0.9-0.1,1.6-0.1,2.2-0.3c2.4-0.9,4.8-1.9,7.2-3c2-0.9,4.1-1.5,6.4-0.9
		c1.5,0.4,2.8,0.4,4.2-0.2c1.3-0.6,2.6-0.5,3.8,0.6c0.6,0.5,1.1,1,1.7,1.6c2.3,2.3,4.9,3.8,8.3,3.2c1.8-0.3,3.7-0.7,5.5-1.1
		C1826.5,540.9,1826.8,540.7,1827.5,540.5z M1822.2,566.6c-3.5,0.3-6.6,0.6-9.7,0.8c-4.8,0.3-9.5,1.2-14,2.9c-1.6,0.6-3,1.5-4.8,2.4
		c0.9,0.6,1.4,1,2,1.3c1.5,0.7,3,1.1,4.4,2c1.9,1.2,3.9,1,5.9,0.6c3.7-0.8,7.1-2.2,10.2-4.5C1818.3,570.5,1820.3,568.8,1822.2,566.6
		z M1792.1,620.2c0.1,0,0.5,0.1,0.9,0c4.3-0.4,8.6-0.8,12.9-1.4c1.5-0.2,2.9-0.7,4.3-1.2c5.1-2.1,7.5-6.4,8.5-11.5
		c0.8-4.1,0.5-8.3,0.1-12.5c-0.1-0.6-0.4-1.1-0.6-1.7c-0.1,0-0.3,0.1-0.4,0.1c0.1,0.8,0.1,1.5,0.2,2.3c0.5,4.9-0.7,9.4-3.4,13.5
		c-3.1,4.6-7.7,7.2-12.6,9.2C1798.6,618.4,1795.2,619.2,1792.1,620.2z M1761.5,603.2c-1.7-5.4-2.1-10.5-0.9-15.7
		c0.3-1.2,0.6-2.5-0.1-3.8c-0.6-1.1-1.1-2.2-1.6-3.3c-0.2-0.4-0.5-0.8-0.8-1.3c-0.3,0.3-0.4,0.4-0.5,0.5c-2.6,5-3.8,10.3-2.4,15.8
		C1756,598.7,1758.1,601.3,1761.5,603.2z M1773.9,556.9c0.2,0.2,0.3,0.5,0.5,0.6c1.8,1.1,3.6,2.2,5.5,3.2c0.5,0.2,1.3,0.1,1.8-0.1
		c3-1.4,6-2.9,8.9-4.5c1.3-0.7,2.6-1.5,3.5-2.8c-2,0.1-4,0.1-6,0.2c-3.4,0.2-6.8,0.5-10.3,0.9
		C1776.2,554.5,1774.8,555.3,1773.9,556.9z M1779.1,561.8c-0.2-0.3-0.2-0.4-0.3-0.5c-1.7-1.1-3.4-2.2-5.1-3.2
		c-0.7-0.4-1.1,0-1.6,0.5c-1,1.3-2,2.5-3,3.8c-1.8,2.3-3.6,4.5-5.5,6.8c0.9,1,1.6,1.9,2.4,2.7c0.8,0.7,1.4,0.6,1.9-0.2
		c2.2-3.5,5.3-5.9,8.6-8.2C1777.5,563.1,1778.3,562.4,1779.1,561.8z M1765.4,606.3c0.3,0.8,0.6,1.6,1,2.4c1.5,2.7,3.1,5.4,6.2,6.6
		c0.4,0.2,0.8,0.5,1.1,0.9c2.5,2.8,5.7,3.9,9.3,3.8c3.4,0,8-0.8,10.3-1.9c-5.6,0.6-10.5-1-15.3-3.1
		C1773.4,612.9,1768.9,610.3,1765.4,606.3z M1803.4,567.6c0,0.1,0.1,0.3,0.1,0.4c2.2-0.6,4.4-0.9,6.5-1.8c6-2.3,12-4.8,17.9-7.4
		c2-0.9,3.9-2,5.1-4C1822.7,557.8,1812.6,561.7,1803.4,567.6z M1747.3,582c-0.9,1.7-0.8,3.5-0.9,5.3c-0.1,2.8,0.3,5.6,2.1,8
		c1.6,2,3.6,3.3,6.6,3.2c-2.7-3.1-3.7-6.7-4.9-10.2C1749.6,586,1748.9,583.8,1747.3,582z M1809.7,545.3c1.2-0.4,2.3-0.7,3.5-1.1
		c1.2-0.4,2.4-0.7,3.7-1.1c-1.5-1-2.7-1.9-3.9-2.7c-0.8-0.6-1.6-1.3-2.5-1.8c-1.4-0.8-2.8-1.4-4.2-0.6
		C1807.5,540.4,1808.5,542.7,1809.7,545.3z M1813.9,565.7c0,0.1,0,0.1,0,0.2c2.4,0,4.8,0.1,7.1,0c1-0.1,2.2-0.4,3.1-1
		c2-1.3,3.3-3.2,4.6-5.5C1823.6,561.6,1818.8,563.6,1813.9,565.7z M1815.3,604.1c1.9-4.7,2.7-9.1,1.1-10.1c-1.2,1.5-2.4,3-3.5,4.4
		C1813.7,600.3,1814.5,602.1,1815.3,604.1z M1758.9,577c1.3,0.1,2.2,0.1,3.1,0.1c2.5,0,3.2-0.4,4.1-2.7c0.1-0.4,0.1-1-0.1-1.2
		c-0.3-0.3-1-0.5-1.3-0.4C1762.6,573.9,1760.6,574.9,1758.9,577z M1811.9,599.6c-2.6,1.1-4.9,2.1-7.2,3.1c2.9,0.3,5.8,1,8.8-0.3
		C1812.9,601.3,1812.4,600.4,1811.9,599.6z M1761.4,583.4c1-1.7,1.9-3.2,2-5.2c-1.4-0.1-2.7-0.2-4.2-0.3
		C1759.3,580.2,1760.4,581.7,1761.4,583.4z M1790.1,574.3c0,0.1,0,0.2-0.1,0.3c2.3,0.7,4.5,1.6,7.3,1.6c-1.8-1.1-3.3-2-4.8-2.9
		C1791.8,573.6,1790.9,573.9,1790.1,574.3z M1786.3,552.6c-2.7-0.2-5.4-0.5-8.4-0.8c-0.3,0.3-0.7,0.9-1.3,1.7
		C1780,553.3,1783.2,552.9,1786.3,552.6z M1763,570.6c-0.7,0.9-1.6,1.6-1.8,2.9C1764.1,572.1,1764.3,571.8,1763,570.6z
" fill="#000000"/>
</svg>