<svg xmlns="http://www.w3.org/2000/svg" viewBox="503.3021240234375 387.3367919921875 122.5726318359375 110.70925903320312">
  <path d="M588.3,494.3c-1.8-1.1-3.8-2-5.4-3.4c-1.3-1.1-2.1-2.7-3.1-4.1c-0.7-1-1.5-2-2.2-3.1c-0.7-1-1.4-1.9-2-2.9
		c-0.5-0.8-1-1.7-1.4-2.6c-0.3-0.6-0.6-1.2-0.7-1.8c-0.4-5.2-3.1-9.3-6.6-12.9c-1.4-1.4-1.4-2.2,0.6-2.8c1.7-0.5,3.5-0.9,5.3-0.7
		c4.8,0.5,9.3-0.3,13.6-2.1c3.9-1.7,8-2.1,12.1-1c1,0.2,2.2,0.2,3.2,0.5c1.7,0.6,3,2.2,5.1,2.1c3.6,2.8,6.8,5.9,9.4,9.8
		c0,0.1,0.1,0.1,0.1,0.2c0.8,3.1,2.1,6.2,2.4,9.4c0.3,3.4,1.8,5.9,4,8.2c1,1.1,1.9,2.4,2.6,3.7c1.2,2.2,0.5,4-1.9,4.6
		c-1.4,0.4-3.1,0.6-4.5,0.3c-3.3-0.7-6.3-0.2-9.3,1.4c-1.1,0.6-2.5,0.8-3.8,0.9c-4.9,0.3-9.5-0.9-14-2.6c-1.1-0.4-2.2-0.6-3.3-0.9
		C588.3,494.4,588.3,494.3,588.3,494.3z M600.8,458.5c2.9,14.2-3.6,24.2-14.5,32.2c0.8,1.2,1.7,1.2,2.7,0.8c0.7-0.3,1.3-0.6,2-1
		c3.5-2.1,6.1-5.1,8.2-8.5c2.3-3.8,3.6-7.9,4.5-12.2c0.6-2.8,1-5.7,0.4-8.5C603.6,459.4,602.7,458.6,600.8,458.5z M599.1,460.8
		c-0.6,12.2-7.5,20.1-17.6,25.9c0.4,0.5,0.8,1,1.1,1.5c0.8,1.3,1.9,1.7,3.2,0.9c1.6-0.9,3.3-1.7,4.7-2.9c4.6-4.3,7.6-9.6,9-15.7
		C600.2,467.3,600.3,464,599.1,460.8z M597.9,495.8c2.5,0.3,4.5-0.1,6.1-1.3c5.4-4.1,9.3-9.3,10.8-16.1c0.8-3.4,0.7-6.7-0.8-10
		c-0.1-0.3-0.5-0.5-1-0.9c-0.4,5.8-0.8,11.1-4,15.9C606,487.9,602.4,492,597.9,495.8z M609.4,463.6c-0.2,1.1-0.4,1.8-0.4,2.6
		c-0.3,5.8-1.7,11.3-4.5,16.4c-2.1,3.9-4.8,7.3-8.6,9.8c-0.8,0.5-1.5,1.3-2.3,2c2,1,3.4,0.4,4.7-0.7c3.9-3.5,7.5-7.4,9.9-12.2
		c2.5-4.8,3.7-9.8,3-15.2C611.2,465.2,610.8,464.4,609.4,463.6z M605.3,460.3c0.6,13.9-3.6,25.3-15.3,33.1c3.7,0.2,6.1-2,8.4-4.4
		c4.3-4.5,7-10,8.6-16.1c0.7-2.8,1.4-5.7,1.1-8.7C607.9,462.7,607.5,461.3,605.3,460.3z M590.4,458c0.1,0.8,0.1,1.7,0.2,2.5
		c0.6,3.4,0.6,6.7-1,9.8c-2.5,4.8-6,8.6-10.9,11c-0.4,0.2-0.7,0.5-1,0.7c1.6,1.5,2.1,1.5,3.8,0.6c6.7-3.6,10.4-9.4,11.8-16.7
		c0.3-1.8,0.4-3.7,0.4-5.6C593.6,458.3,592.7,457.7,590.4,458z M580.3,485.4c0.7-0.2,1.1-0.3,1.4-0.4c3.8-1.9,7-4.5,9.7-7.8
		c3.3-3.9,5.4-8.4,5.9-13.6c0.2-2.2-0.1-4.5-2.3-6c-0.3,0.9-0.6,1.9-0.5,2.8c0.1,1.8,0.7,3.6,0.4,5.3c-1.3,7.3-5.1,13-11.6,16.9
		C582.3,483.2,580.9,483.6,580.3,485.4z M604.5,495.9c0.1,0.2,0.1,0.4,0.2,0.6c0.8-0.2,1.8-0.2,2.5-0.6c3.7-2.1,6.7-5.1,8.7-8.9
		c1.6-3.1,2.3-6.3,0.4-9.7C615.1,485.3,610,490.7,604.5,495.9z M585,459.7c-1.4,0.7-1.1,1.8-0.9,2.8c0.9,4.3-0.3,8.1-3.3,11.2
		c-1.5,1.6-3.3,2.8-5.1,4.3c0.1,0.7,0.6,0.6,1.4,0.2c4.4-2.2,7.6-5.4,9.2-10C587.3,465.2,587,462.3,585,459.7z M577.2,480
		c0.1,0.2,0.2,0.3,0.3,0.5c0.4-0.2,0.9-0.3,1.3-0.5c4.3-2.2,7.3-5.7,9.5-9.9c1.5-2.9,1.6-6,1.1-9.1c-0.2-1.2-0.8-2-2.2-1.9
		c0.4,1.7,1,3.2,0.9,4.6c-0.2,6.8-3.2,11.9-9.3,15.3C578.3,479.2,577.8,479.6,577.2,480z M574.7,476.3c6.1-1.5,10.7-11.2,7-15
		c0,1.3,0,2.2,0.1,3.2c0.3,2.6-0.2,4.9-2.4,6.6c-1.4,1-2.7,2.2-4.1,3.2C574.6,474.8,574,475.2,574.7,476.3z M612.8,494.3
		c3.4-0.8,5.2-3,6.3-6c0.5-1.4,0.5-2.7-0.6-3.6C616.6,487.8,614.8,491,612.8,494.3z M571.8,467.1c1.1,0.8,1.6,0.9,2.3,0.2
		c1.5-1.6,2.4-3.4,2.5-6.1c-1,0.5-2,0.6-2.3,1.1C573.2,463.8,572.6,465.5,571.8,467.1z M574,471.1c3.3-1.7,5.6-6.5,4-8.5
		c-1.1,2.3-2,4.8-4.2,6.5C573,469.6,573.4,470.4,574,471.1z M574.4,472.9c4-0.8,7.5-7,5.8-10.5C579.6,466.7,577.9,470.3,574.4,472.9
		z M617.4,493.6c2.9-1.1,4.4-3.6,3.5-5.9C619.7,489.7,618.6,491.6,617.4,493.6z M570.7,461.7c-1.4-0.3-2.5-0.7-3.5,0.6
		c0.7,0.6,1.4,1.3,2.2,2C569.9,463.3,570.2,462.7,570.7,461.7z M572.6,461.4c-0.9,1.5-1.7,2.6-2.4,3.8c0,0,0.2,0.3,0.5,0.5
		C571.7,464.5,573,463.6,572.6,461.4z
M558.3,406.4c1.9-4.1,5-7.7,9.3-10.2c1.1-0.7,2.4-1.3,3.7-1.4c4.7-0.5,8.6-2.6,12-5.8c0.5-0.5,1.1-0.8,1.7-1.1
		c2.1-1.1,3.4-0.6,4.1,1.6c0.3,0.8,0.5,1.7,0.5,2.5c0,4,1.8,7.4,3.8,10.8c1.7,2.9,3.5,5.7,4.5,8.9c2.7,8.4,0.5,15.9-5.5,22.3
		c-3,3.2-6.5,5.3-10.9,6.2c-2.2,0.5-4.1,2.1-6.1,3.3c-2,1.1-3.8,2.5-5.8,3.5c-2.5,1.3-4.4,0.6-4.6-2c-0.4-4.1-3.1-6.8-4.9-10
		c-3.2-5.7-4.9-11.8-4.6-18.3C555.6,413.1,556.5,409.8,558.3,406.4z M566.1,434.9c0.1-1.1,0.2-2.2,0.1-3.3c-0.2-2.1-0.5-4.2-0.8-6.4
		c0-0.5,0.1-1,0-1.5c-0.7-4-1.3-8-0.5-12.1c0.7-3.9,2.2-7.4,5.3-10.1c2.1-1.8,4.5-2.9,6.9-3.9c3.2-1.4,6.4-2.6,8.9-5.2
		c1.1-1.1,1.8-2.3,1.3-3.9c-1.8,0.2-2.4,0.5-3.4,1.8c-1.4,1.8-2.6,3.7-4.8,4.6c-3.4,1.4-6.4,3.6-9.2,5.9c-3.4,2.8-6,6.2-6,10.8
		c0,3,0.2,6,0.6,8.9c0.2,1.5,0.7,3,1.1,4.5c0,0.9-0.1,1.8-0.1,2.7c0.1,2.4,0.4,4.7,0.5,7.1c-0.1,2.1-0.2,4.1-0.4,6.2
		c-0.1,1.5,0.2,2.9,1,4.2c0.6,0.9,1.2,1.1,2.4,0.3c-2-0.3-2.4-1.5-2.2-3c0-0.3,0.1-0.7,0.1-1C566.6,439.3,566.3,437.1,566.1,434.9z
		 M586.6,393.9c-2.7,2.5-5.9,3.5-9,4.8c-2.1,1-4.3,1.9-6.1,3.3c-4.6,3.4-4.8,8.8-5.7,13.8c0,0.3,0,0.5,0.1,0.8
		c0.7,6.7,1.4,13.4,2.1,20c0.2,2.3,0.5,4.7,0.7,7.4c1.2-0.7,2.2-1.1,3.1-1.6c3.3-2.3,6-5.2,8.7-8.2c3.4-3.8,5.5-8.4,6.8-13.2
		c1.9-6.8,1.7-13.8,1-20.8C588.1,398.1,587.8,396,586.6,393.9z M589.6,399.4c-0.2,0.5-0.3,0.7-0.3,0.9c0,0.6,0.1,1.2,0.1,1.8
		c0.4,5.9,0.7,11.7-0.4,17.5c-0.7,3.9-1.8,7.7-4.4,10.9c-2.2,2.8-4.6,5.5-7,8.2c-1,1.1-2,2.2-3,3.3
		C588.3,435.3,595.2,415.5,589.6,399.4z M562.7,418.6c-2.5,1.1-4.8,3.6-4.6,5.7c1.2-0.8,2.3-1.7,3.5-2.5
		C562.9,421.1,563.4,420.2,562.7,418.6z M558.7,428.6c1.8-2.1,4.7-2.5,4.8-5.6C560.8,423.4,558.9,425.5,558.7,428.6z M594.9,428
		c0.2-0.3,0.4-0.5,0.4-0.8c0-1.1-2.8-3.4-3.9-3.1c-0.4,0.1-0.8,0.7-0.9,1.1c-0.1,0.3,0.2,0.9,0.5,1.1
		C592.2,426.9,593.5,427.4,594.9,428z M563.2,426.8c-2.8,1.4-3.8,3-3.3,5.2c0.9-0.9,1.7-1.9,2.7-2.4
		C563.9,428.8,563.7,428,563.2,426.8z M597.2,415.3c-0.4-1.9-1.3-2.8-2.9-2.9c-0.7-0.1-1.5-0.2-1.5,0.7c0,0.6,0.5,1.5,0.9,1.7
		C594.8,415.1,596,415.2,597.2,415.3z M596.9,422.6c0.5-1.1,0.3-1.8-0.5-2.3c-0.9-0.5-1.7-1-2.7-1.4c-0.4-0.2-1,0.1-1.6,0.1
		c0.3,0.5,0.4,1.3,0.8,1.5C594.2,421.4,595.4,421.9,596.9,422.6z M597.7,419.6c-0.5-2.5-1.8-3.5-3.9-3.7c-0.4,0-0.8,0.3-1.2,0.4
		c0.2,0.4,0.3,0.9,0.6,1.1C594.6,418.2,595.9,418.8,597.7,419.6z M562.1,416.7c-2.5-0.2-4.2,1.2-4.8,4.2
		C559.1,419.5,561.1,418.7,562.1,416.7z M589.1,428.7c1.5,0.7,2.9,1.4,4.3,2.1c0.4-1.4,0-2.1-1.8-2.8
		C590.7,427.7,589.6,427.2,589.1,428.7z M565.1,403.8c-2.3,0.4-4.3,0.8-5.3,3.1C561.6,406,564.1,406.4,565.1,403.8z M563.3,407.2
		c-2.6,0.7-3.8,1.4-5,3.1C561.1,410.3,562.9,409.2,563.3,407.2z M568.8,400c-2.2,0.6-4.4,0.5-5.5,2.5
		C565.3,402.3,567.4,402.4,568.8,400z M562.5,411.2c-2.3-0.7-4.2,0.4-4.8,2.8C559.3,413.1,560.8,412.2,562.5,411.2z M557.8,416.5
		c1.6-0.8,3.5-0.7,4.3-2.6C560,413.6,558.7,414.4,557.8,416.5z M588.1,430.4c0,0.2-0.1,0.4-0.1,0.7c0.9,0.5,1.7,1.1,2.6,1.6
		c0.1,0.1,0.2,0.2,0.3,0.2c0.3,0,0.7-0.1,0.9-0.3c0.2-0.1,0.2-0.6,0.2-0.7c-0.7-0.5-1.3-1.1-2.1-1.4
		C589.4,430.3,588.7,430.4,588.1,430.4z M591.6,422.6c1.5,0.7,3,1.5,4.6,2.3C595.3,422.6,593.8,421.7,591.6,422.6z M586.2,433.3
		c0.7,0.6,1.2,1.3,1.9,1.7c0.2,0.2,0.9-0.1,1.2-0.4c0.2-0.2,0.2-0.9,0.1-1.2C588.8,432.5,587.8,432.4,586.2,433.3z M566.6,398.4
		c2.4,0.6,3.9,0.3,5.2-1.2C570,397.6,568.3,398,566.6,398.4z M596.6,411.4c-1.6-2.1-2.7-2.3-3.8-1
		C593.9,411.2,594.9,411.9,596.6,411.4z M561.9,434.4c1-1.1,2.5-1.8,1.9-3.6C561.8,431.8,561.3,432.7,561.9,434.4z
M522.2,450.7c0.4-0.1,0.8-0.4,1.1-0.3c1.9,0.8,3.2-0.5,4.5-1.3c2.2-1.4,4.4-2.4,7-2.8c0.8-0.1,1.6-0.3,2.3-0.7
		c0.5-0.2,0.9-0.8,1.4-1.2c-0.1-0.2-0.1-0.3-0.2-0.5c-0.6,0-1.1-0.1-1.7,0c-4.5,0.8-8.8,2.2-12.6,4.7c-3.5,2.3-5.2,1.5-5.9-2.7
		c0.7-0.4,1.5-0.7,2.3-1.1c-0.2,1.4-1,2.7,0.5,3.9c1.2-0.6,2.6-1.3,3.9-2.1c3.5-2.1,7.2-3.4,11.3-3.6c1-0.1,2-0.4,2.8-0.8
		c0.5-0.2,0.6-1,0.9-1.6c-0.4-0.2-0.9-0.6-1.3-0.6c-4.5-0.2-8.7,0.5-12.7,2.7c-0.8,0.4-1.5,0.9-2.3,1.2c-0.6,0.2-1.3,0.2-2,0.3
		c-0.1-0.2-0.1-0.3-0.2-0.5c0.3-0.3,0.6-0.7,1.1-0.9c4.4-2.3,9-3.7,13.9-3.9c1.7-0.1,3.5,0,4.9-1.4c-0.3-1.5-1.5-2-2.7-2.3
		c-3.2-0.9-6.3-0.1-9.4,0.8c-3.8,1.1-7.2,3-10.4,5.4c-1.2,0.9-1.4,2-1,3.4c-0.4,0-0.7,0.1-0.7,0.1c-1.4-1.3-2.8-2.6-4.2-4
		c-0.6-0.7-1.2-1.5-1.6-2.3c-1.6-3.2-3.2-6.4-4.9-9.6c-2.5-4.6-3.3-9.5-2.9-14.7c0.2-3,0.9-5.9,1.1-8.9c0.2-2.9,0.2-5.8,0.3-8.8
		c0-1.3-0.1-2.7,1.2-3.4c1.4-0.7,2.6,0.3,3.6,1.2c1.6,1.4,3.2,2.9,4.6,4.5c2.1,2.4,4.6,3.8,7.8,3.9c0.2,0,0.4,0,0.6,0
		c4.3,1.9,9.2,2.3,13.2,5c0.4,0.3,0.8,0.7,1.2,1.1c1.6,1.9,3.2,3.9,4.8,5.9c0.3,0.3,0.6,0.6,0.7,1c0.8,3.8,2.5,7.3,2.6,11.2
		c0,1-0.4,1.7-1.3,2c-0.8,0.3-1,0.8-0.8,1.5c0.3,1.3-0.1,2.3-0.7,3.4c-0.3,0.5-0.4,1.4-0.2,2c0.4,1.1,0.5,2.1-0.1,3.2
		c-1,1.8-1.7,3.8-2.4,5.7c-0.7,1.8-1.5,3.8,0.1,5.6c0.3,0.3,0.3,0.9,0.3,1.3c0,1.6-0.1,3.2-0.1,4.8c0,1.3-0.3,2.5-1.4,3.2
		c-1.1,0.7-2.4,0.3-3.4-0.4c-1.5-1-2.9-2.2-4.4-3.1c-1.6-1-3.4-1.9-5.1-2.8C524.4,452.8,522.8,452.4,522.2,450.7z M536.1,410.2
		c-1.1-1.6-2.3-2.1-3.7-1.8c-4.3,0.8-8.7,1.5-12.8,2.7c-4.8,1.4-9.1,4-12.5,7.8c-1.9,2.1-2.1,4.2-0.4,6.5
		C514.7,417.2,524.4,412.2,536.1,410.2z M509,432.1c0.1,0.1,0.2,0.2,0.3,0.3c0.2,0,0.4-0.1,0.5-0.2c0.4-0.3,0.9-0.6,1.3-0.9
		c4.4-3.6,9.2-6.4,14.4-8.4c4.7-1.8,9.4-3.4,14.5-3.4c0.6,0,1.5-0.4,1.6-0.8c0.2-0.6,0-1.6-0.5-1.9c-0.7-0.6-1.7-1-2.6-1.3
		c-2.2-0.5-4.4-0.2-6.5,0.5c-8.2,2.6-15,7.4-21,13.4C510.3,430.3,509.7,431.2,509,432.1z M514.4,440.2c1.9,1.5,1.8,1.5,3.5,0.3
		c4.4-3.1,9.1-5.5,14.6-6c2-0.2,4,0,5.9,0c2.1,0.1,3.5-1.1,3.5-3c0-2-0.8-2.6-3.2-2.5c-4.3,0.2-8.4,1.3-12.3,3
		C521.9,434,518,436.8,514.4,440.2z M508.4,430.2c1.8-1.8,3.5-3.5,5.3-5.1c1.8-1.6,3.7-3,5.7-4.3c1.9-1.3,4-2.4,6.1-3.3
		c2.2-1,4.6-1.5,6.8-2.4s4.7,0.2,7.3-1.2c-1-0.6-1.6-1.1-2.3-1.4c-1.7-0.8-3.5-0.6-5.3-0.2c-9.2,2.1-17,6.7-23.4,13.6
		C506.8,427.5,506.8,427.9,508.4,430.2z M511.7,435.9c1.1-0.9,2.1-1.7,3.2-2.5c7.1-5.2,15-8.4,23.8-9.5c1.5-0.2,3.2-0.1,4.5-1.5
		c-1.1-2.1-3-2.1-4.7-1.8c-10,1.5-19,5.4-26.6,12.1C510.6,433.7,510.6,434.5,511.7,435.9z M513.1,438.9c2-1.3,3.9-2.7,5.9-4
		c6.8-4.4,13.9-7.6,22.3-6.7c0.5,0.1,1.1,0,1.5-0.2c0.5-0.2,1.1-0.7,1.1-1.1c0-0.6-0.3-1.4-0.7-1.7c-0.8-0.4-1.8-0.7-2.6-0.6
		c-4.7,0.5-9.3,1.7-13.6,3.5c-5,2.1-9.5,4.7-13.5,8.4C512.6,437.2,512.1,437.8,513.1,438.9z M530.7,407.3c0-0.2,0.1-0.4,0.1-0.5
		c-1.1-0.3-2.1-0.7-3.2-0.7c-8-0.4-15,2.3-21.1,7.4c-1.7,1.4-2,3.6-1,5.8C512.2,411.4,521.2,408.8,530.7,407.3z M524.3,405
		c-1.8-1.1-3.5-1.3-5.1-1.2c-4.9,0.1-9.1,1.6-12.6,5.2c-0.9,0.9-1.7,2-1.2,3.6C510.7,408.7,514.6,406.1,524.3,405z M516.2,402.6
		c-2.8-2.1-2.8-2.1-5.7-0.2c-0.3,0.2-0.7,0.4-1,0.6c-1.5,1.3-3.4,2.3-3.7,4.5C509.2,405.9,512.6,404.3,516.2,402.6z M538.1,458.6
		c0.1-2,0.1-3.8,0.2-5.9c-2.2,1-4.4,1.2-5.5,3.3C534.5,457,535.7,458.7,538.1,458.6z M529.6,453.1c0.6,1.3,1.4,1.5,2.5,0.9
		c1.7-0.8,3.3-1.7,5-2.5c0.4-0.2,0.8-0.6,1.5-1.2c-0.8-0.3-1.3-0.7-1.7-0.6C534.2,450.3,531.8,451.5,529.6,453.1z M536.9,447.8
		c-0.1-0.1-0.2-0.3-0.2-0.4c-3.5,0.8-6.9,1.8-9.6,4.5c0.5,0.3,1.1,0.4,1.4,0.2c2-1.7,4.6-2.4,7-3.3
		C536,448.5,536.4,448.1,536.9,447.8z M510.5,397c-1.4-1-2.4-1.7-3.8-2.7c-0.1,2.1-0.2,3.6-0.3,5.7C507.9,398.8,509,398,510.5,397z
		 M511.6,398.7c-3.5,0.7-5.5,2.6-5,4.9C508.4,402.2,510.5,401.2,511.6,398.7z
" fill="#000000"/>
</svg>