<svg xmlns="http://www.w3.org/2000/svg" viewBox="218.44375610351562 500.8999328613281 101.956298828125 90.74252319335938">
  <path d="M245,572.5c0.5,0,0.9,0,1.4-0.1c7-1.6,13.9-3.2,20.9-5c5.9-1.5,11.8-3.1,17.5-5.4c4.2-1.6,8.6-1.8,13-1.2
		c3.3,0.4,6.5,1.1,9.7,1.9c1.6,0.4,3.2,1.2,4.6,2.2c2.5,1.7,2.7,4.4,0.6,6.7c-1.8,2.1-4.3,3.1-6.8,3.9c-4.5,1.4-9.1,2.6-13.7,3.8
		c-6.5,1.7-13.1,3.5-19.6,5.1c-5.8,1.4-11.6,2.7-17.3,4c-4.4,1-8.9,1.7-13.2,2.7c-6.7,1.5-12.6-0.2-18.1-4c-1.6-1.1-3.1-2.3-4.5-3.5
		c-1.3-1.1-1.4-1.5-0.3-2.7c1.6-1.8,3.6-2.9,5.9-3.4c2.3-0.5,4.5-1,6.8-1.5c0.3-0.1,0.6-0.3,1-0.4c-0.8-3.2,1.1-5.5,2.5-7.9
		c1.1-1.9,2.1-3.8,3.1-5.8c0.2-0.4,0.3-0.9,0.1-1.5c-1.9,1.3-3.8,2.5-5.8,3.7c-3,1.8-6.1,3.3-9.7,3.5c-3.6,0.2-5-1.7-4.3-5.2
		c0.5-2.7,2.1-4.8,3.6-7c4.1-6.2,9.4-11.5,14.6-16.7c11.4-11.3,23.4-22,35.8-32.2c2.6-2.1,5.3-4,8.6-5.1c1.9-0.6,3.9-0.8,5.8,0.2
		c2.1,1.1,2.9,2.8,2.5,5.2c-0.4,2.6-1.5,4.9-2.8,7.2c-4,7.4-9.7,13.2-15.8,18.7c-4.2,3.8-8.3,7.6-12.5,11.4c-1.3,1.2-2.7,2.2-4,3.6
		c0.4-0.1,0.8-0.2,1.2-0.3c5.3-1.9,10.7-3.8,16-5.7c4.7-1.7,9.4-3.6,14.2-5.4c4.9-1.9,9.7-3.7,14.6-5.6c4.1-1.5,8.1-3,12.2-4.5
		c1.5-0.5,3.1-1,4.8-1.3c2.1-0.3,2.8,0.5,2.8,2.6c-0.1,2.3-1.3,4.1-2.4,5.9c-3.3,5.8-7.9,10.4-13.6,13.8c-1.1,0.7-2.4,1-3.6,1.6
		c-1.4,0.7-2.7,1.5-4.1,2.1c-4.4,1.9-8.8,3.8-13.2,5.6c-3.3,1.4-6.6,2.9-10,4.3c-4.6,1.9-9.1,3.8-13.7,5.6c-3.8,1.5-7.5,3-11.3,4.5
		c-1.2,0.4-2.3,0.8-3.5,1.2C245,572.3,245,572.4,245,572.5z M239.7,561.6c-0.1,0.1-0.3,0.1-0.4,0.3c-1.5,2.9-3.1,5.8-4.5,8.7
		c-0.5,1.1-1.4,2.3-0.9,3.7c1.3,0.4,2.3,0.3,3.2-0.7c1.5-1.8,3-3.5,4.3-5.3c0.9-1.2,1.5-2.5,2.2-3.7c-2.1,1.6-3.3,4-5.7,5.4
		c-0.5-1.7,0-3.1,0.4-4.4C238.8,564.2,239.3,562.9,239.7,561.6c0.3-0.4,0.6-0.8,1-1.2c1.4-1.7,2.7-3.5,4.2-5.2
		c0.4-0.4,1.2-0.6,1.8-0.6c0.5,0,0.9,0.6,1.4,0.9c0.3-1.6-0.4-2.3-1.9-1.6C242.6,555.3,240.8,558.1,239.7,561.6z M299,575.8
		c2.5-0.5,5-0.8,7.4-1.5c2.1-0.6,4.1-1.6,5.4-3.6c1-1.4,1-3-0.1-4.4s-2.5-2.4-4.3-2.8c-2.5-0.5-5.1-1-7.6-1.6
		c-5.6-1.2-10.9-0.1-15.9,2.5c-2.8,1.5-2.8,3.1-0.7,5C287.6,573.4,292.8,575.6,299,575.8z M291,575.5c0-0.2-0.1-0.3-0.1-0.5
		c-2,0.2-4,0.2-5.9,0.6c-5.7,1.2-11.5,2.6-17.2,3.9c-6.2,1.4-12.4,3-18.6,4.4c-5.8,1.3-11.6,2.3-17.5,3.5c-0.7,0.1-1.4,0.5-2.3,0.8
		c1.7,1.1,3.1,1.7,4.8,1.3c3.1-0.6,6.2-1.2,9.2-1.8c5.8-1.3,11.7-2.6,17.5-4c5.4-1.3,10.7-2.8,16.1-4.2c2.8-0.7,5.6-1.5,8.4-2.3
		C287.3,576.8,289.1,576.1,291,575.5z M245.5,564.4c0.3,0,0.5,0,0.6-0.1c4.5-1.9,9-3.9,13.5-5.7c4.8-1.9,9.7-3.7,14.6-5.5
		c4.2-1.6,8.5-3,12.7-4.6c3.9-1.4,7.8-2.9,11.7-4.5c3.4-1.4,6.8-3.1,10.2-4.6c1.8-0.8,3.6-1.7,5.3-2.6c0.4-0.2,0.7-0.8,1.1-1.1
		c-0.1-0.1-0.2-0.2-0.3-0.3c-2.6,0.9-5.1,1.9-7.7,2.8c-3.8,1.5-7.7,3-11.5,4.5c-4.6,1.8-9.3,3.7-13.9,5.5s-9.3,3.6-13.9,5.5
		c-3.5,1.4-7,3-10.4,4.5s-6.7,3-10,4.6C246.7,563.1,245.8,563.3,245.5,564.4z M265.8,522.6c-0.4,0.3-0.5,0.4-0.7,0.5
		c-6.8,6.5-13.5,13-20.3,19.5c-6.9,6.6-13.7,13.2-20.6,19.9c-0.9,0.8-1.6,1.8-2.4,2.7c0.1,0.1,0.2,0.1,0.3,0.2
		c0.6-0.4,1.2-0.9,1.9-1.3c7.9-5.6,14.8-12.2,21.7-18.9c6.6-6.3,13.2-12.7,19.8-19c0.5-0.5,1-1.1,1.6-1.6
		C266.6,523.9,266.2,523.3,265.8,522.6z M220,581.1c0,0.1,0,0.3,0.1,0.4c0.6,0,1.2,0.1,1.7,0c1.9-0.4,3.8-0.7,5.6-1.2
		c6.8-1.8,13.6-3.7,20.4-5.4c6.9-1.7,13.9-3.3,20.8-5c3.3-0.8,6.6-1.5,9.9-2.4c1.4-0.4,2.5-1.3,3.2-2.9c-0.5,0-0.7,0-0.9,0.1
		c-5.5,1.5-10.9,3.1-16.4,4.4c-5.8,1.4-11.6,2.7-17.3,4c-4.1,1-8.2,1.9-12.4,2.9c-3.3,0.8-6.6,1.6-9.9,2.5
		C223.1,579,221.3,579.6,220,581.1z M286.2,573.9c0-0.1-0.1-0.3-0.1-0.4c-1.9-0.2-3.8-0.2-5.7,0.4c-1.3,0.5-2.6,0.9-4,1.1
		c-5.2,1-10.5,2.1-15.7,2.9c-5.2,0.9-10.4,2-15.4,3.6c-5.5,1.8-11.1,2.8-16.7,3.8c-1,0.2-2.1,0.5-3.4,0.9c1.4,1,2.5,1.1,3.8,0.9
		c3.2-0.6,6.5-1.3,9.7-2c4.5-0.9,9.1-1.8,13.6-2.8c6-1.3,12-2.8,18-4.2c5-1.2,9.9-2.5,14.8-3.8C285.5,574.3,285.9,574.1,286.2,573.9
		z M222.1,584c1,1.7,2.2,1.4,3.4,1.1c1-0.2,2-0.5,3-0.7c5.2-1.1,10.4-2,15.5-3.2c4.3-1,8.5-2.3,12.8-3.3c3.1-0.7,6.3-1.1,9.4-1.7
		c3.1-0.6,6.2-1.1,9.2-1.8c2.6-0.6,5.1-1.4,7.7-2.1c0-0.2,0-0.4,0-0.5c-0.6-0.2-1.3-0.5-1.9-0.5c-1.5,0.1-3,0.2-4.4,0.5
		c-3.4,0.7-6.7,1.6-10.1,2.3c-5.9,1.3-11.8,2.6-17.7,3.9c-3.8,0.9-7.6,1.8-11.4,2.6c-4.6,1-9.2,1.8-13.7,2.8
		C223.3,583.6,222.8,583.8,222.1,584z M249.6,553.7c1.1,1,2,0.6,3,0.3c1.2-0.4,2.4-0.9,3.5-1.4c4.5-1.8,9-3.6,13.4-5.4
		c4.5-1.8,9-3.7,13.6-5.5c4.7-1.9,9.5-3.7,14.3-5.4c3.6-1.3,7.3-2.5,11-3.5c2.9-0.8,5.7-1.6,8.3-3c0.6-0.3,1.2-0.8,1.8-1.2
		c-0.1-0.1-0.1-0.2-0.2-0.3c-0.4,0.1-0.7,0.1-1.1,0.2c-4.2,1.4-8.4,2.8-12.7,4.1c-4.4,1.4-8.8,2.8-13.1,4.3
		c-5.1,1.8-10.2,3.7-15.3,5.6c-5.5,2.1-11,4.4-16.5,6.7c-2.8,1.1-5.6,2.2-8.4,3.4C250.7,552.9,250.2,553.3,249.6,553.7z
		 M249.3,557.5c4.1-1.7,8-3.3,11.8-4.8c3.9-1.5,7.8-3,11.7-4.5c4.1-1.5,8.1-3,12.2-4.5c5-1.8,10.1-3.4,15.1-5.3
		c5-1.8,9.9-3.8,14.9-5.8c0.9-0.3,1.9-0.6,2.5-1.8c-2.9,1-5.7,1.9-8.4,2.8c-4.6,1.4-9.2,2.6-13.7,4.2c-7.6,2.8-15.1,5.9-22.6,9
		c-6.6,2.8-13.2,5.6-20.1,7.7C251.3,555.1,249.9,555.8,249.3,557.5z M232.5,562.5c2.4-0.5,4.6-2.4,21.9-18.8
		c6.9-6.6,13.7-13.3,20.5-19.9c-0.7,0.1-1.3,0.3-1.7,0.6c-2.7,2.2-5.5,4.4-8,6.8c-9.8,9.3-19.6,18.7-29.4,28
		C234.8,560.2,233.8,561.2,232.5,562.5z M270.1,525c-1.2-0.4-1.9-0.2-2.6,0.5c-5.9,5.7-11.8,11.4-17.7,17c-6,5.6-12,11.3-18.1,16.8
		c-2.5,2.3-5.3,4.3-8,6.5c1.4,0.3,2.6,0.2,3.8-0.8c2.1-1.7,4.1-3.5,6-5.3c10.6-9.9,21.1-19.9,31.7-29.9
		C266.8,528.3,268.4,526.7,270.1,525z M288.4,506.3c0-2.9-1.4-4.2-4.4-3.9c-0.5,0.1-1,0.1-1.5,0.3c-2.9,0.7-5.4,2-7.5,4.1
		c-2.3,2.4-4.9,4.6-7.1,7.1c-1.9,2.1-2.4,4.8-1.5,7.6c0.4,1.3,1.3,2.1,2.6,2.2c1,0.1,2.1,0.2,2.9-0.1c2.6-1,5.2-2,7.7-3.3
		c3.2-1.6,5.1-4.6,6.7-7.7C287.5,510.7,288.5,508.7,288.4,506.3z M243.8,567.5c1.7-0.7,3.2-1.4,4.7-1.9c4.6-1.5,9.1-3.4,13.6-5.5
		c3.5-1.7,7.1-3.2,10.8-4.5c4.1-1.5,8.3-2.7,12.5-4.1c6.5-2.2,13-4.5,19.4-6.8c2.9-1,5.6-2.5,7.6-5.4c-0.5,0.2-0.8,0.2-1.1,0.3
		c-4.3,1.9-8.6,3.8-13,5.6c-4.3,1.7-8.6,3.4-12.9,5c-4.8,1.8-9.7,3.6-14.5,5.4c-4.7,1.8-9.4,3.7-14.1,5.5c-3,1.2-5.9,2.3-8.9,3.5
		C246.4,565.2,244.8,565.8,243.8,567.5z M222.9,582.2c0,0.1,0,0.2,0,0.3c0.9-0.1,1.9,0,2.7-0.2c3.9-0.8,7.9-1.6,11.8-2.4
		c3.5-0.8,7-1.5,10.4-2.4c1.1-0.3,2.1-0.7,3.1-1c1.4-0.3,2.9-0.5,4.4-0.8c2.6-0.6,5.2-1.4,7.8-2c1.1-0.3,2.2-0.3,3.2-0.6
		c4.1-0.9,8.3-1.8,12.4-2.7c0.6-0.1,1.2-0.3,1.9-0.5c-0.7-1.7-0.8-1.7-2.4-1.4c-3.2,0.7-6.3,1.4-9.5,2.1c-6.2,1.5-12.4,3.1-18.6,4.6
		c-3.4,0.8-6.8,1.6-10.3,2.5c-3.6,0.9-7.2,1.8-10.9,2.7C227.1,581,225,581.6,222.9,582.2z M261.9,521.9c-0.1-0.1-0.1-0.1-0.2-0.2
		c-0.9,0.7-1.7,1.5-2.6,2.2c-7.6,6.6-15.4,13.1-22.8,19.8c-4.5,4.1-8.6,8.5-12.9,12.9c-1.3,1.3-2.4,2.8-2.7,4.8
		c3.7-3.5,7.1-7.2,10.7-10.7c8.8-8.4,17.8-16.6,26.7-24.9C259.5,524.6,260.7,523.2,261.9,521.9z M237.3,590.4
		c20.6-2.5,40.4-8.4,60.3-13.8c-1.4-0.2-2.7-0.4-4-0.2c-3.2,0.6-6.3,1.3-9.5,2.2c-5.3,1.4-10.6,3-15.9,4.3c-3.8,1-7.6,1.8-11.4,2.7
		c-4,0.9-7.9,1.9-11.9,2.8C242.4,589.1,239.8,589.8,237.3,590.4z M247.1,561.8c19.1-8.9,38.5-16.4,58-23.8c-0.4-0.2-0.7-0.2-1-0.1
		c-6.3,2.2-12.6,4.4-18.9,6.7c-6.4,2.4-12.8,4.9-19.2,7.3c-4.9,1.9-9.7,3.8-14.5,5.8C249.6,558.4,247.4,558.7,247.1,561.8z
		 M264.8,521.4c-0.1-0.1-0.2-0.1-0.2-0.2c-0.3,0.3-0.7,0.5-1,0.8c-3.8,3.6-7.6,7.3-11.4,10.9c-10.1,9.5-20.2,19-30.3,28.5
		c-0.7,0.7-1.2,1.5-2,2.6c1.5,0,2.1-0.7,2.7-1.3c3.4-3.1,6.8-6.2,10.1-9.4c10.5-10.3,20.9-20.6,31.4-30.9
		C264.3,522.1,264.6,521.7,264.8,521.4z M242.3,569.7c0,0.1,0,0.1,0.1,0.2c0.4,0,0.7,0,1.1-0.1c2.4-0.9,4.7-1.8,7-2.7
		c5.2-2.1,10.3-4.3,15.5-6.4c4.7-1.9,9.4-3.6,14.2-5.3c6.2-2.3,12.5-4.5,18.7-6.7c1.3-0.5,2.5-1,3.8-1.6c-0.1-0.1-0.1-0.3-0.2-0.4
		c-9.9,3.3-19.9,6.4-29.7,10.1c-9.7,3.6-19.1,7.9-28.7,11.9C243.4,568.9,242.9,569.4,242.3,569.7z M228.6,549.7
		c6.7-6.6,13.8-12.7,20.9-18.8c4.9-4.3,9.7-8.7,14.6-13c0.2-0.2,0.3-0.5,0.5-0.8c-0.1-0.1-0.2-0.2-0.3-0.3
		C251.9,527.3,238.9,537.1,228.6,549.7z M238.8,573.3c1.9,0.1,45.3-17.8,47.6-18.8c0.2-0.1,0.2-0.3,0.4-0.7c-1.1,0.4-2.1,0.6-3.1,1
		c-6.7,2.6-13.5,5.3-20.2,8c-7.3,2.9-14.6,5.8-21.8,8.8C240.6,572,239.7,572.7,238.8,573.3z M279.9,521.7
		c-9.5,7.4-17.9,16-26.2,24.7C263.1,538.9,272.3,531.2,279.9,521.7z M318.7,526.9c0-0.2,0-0.3-0.1-0.5c-0.7,0-1.4-0.2-2,0
		c-3.2,0.9-6.3,1.8-9.4,2.8c-3.3,1.1-6.6,2.3-9.9,3.6c-3.5,1.3-6.9,2.7-10.4,4.1c0,0.1,0.1,0.2,0.1,0.3
		C297.5,533.8,308.3,530.8,318.7,526.9z M275.1,541.4c-8.8,2.9-17.6,6.2-25.8,10.7C258.2,549.2,266.7,545.3,275.1,541.4z
		 M246.5,555.9c-3.3,1.2-7.3,7.4-6.3,9.7C243.2,562.9,245.3,559.7,246.5,555.9z
M298.3,572.8c-3.1-0.2-6.1-1-8.9-2.3c-0.9-0.4-1.6-1.1-2.4-1.7c-0.8-0.6-0.7-1.4-0.1-2c0.8-0.8,1.7-1.8,2.8-2.2
		c5.3-1.8,10.7-1.6,16,0.1c1.1,0.4,2.1,1.2,3,2c0.9,0.9,0.8,2-0.1,2.9c-1.5,1.6-3.5,2.2-5.5,2.7
		C301.5,572.7,299.9,572.7,298.3,572.8z M298.2,564.5c-1.1,0-2.3-0.1-3.3,0.2c-1.7,0.5-3.5,1-5,1.9c-1.6,0.8-1.5,1.8,0,2.7
		c5.1,3.1,10.4,3.5,15.9,0.8c2.6-1.3,2.6-2.3,0.1-3.9C303.5,564.7,300.9,564.4,298.2,564.5z
M287.1,507.9c-0.1,1.8-1,3.6-2.1,5.3c-2.4,3.5-5.5,6.4-9.4,8.2c-1.6,0.7-3.2,1.2-5,0.6c-2.3-0.7-3.5-2.7-2.6-4.8
		c0.6-1.3,1.4-2.6,2.3-3.7c2.9-3.5,6.1-6.6,10.1-8.8c1-0.5,2.2-0.8,3.3-1C285.8,503.5,287.2,505.3,287.1,507.9z M272,520.9
		c0.2,0,0.9,0,1.4-0.3c4.2-2.3,8-5,10.9-8.8c1-1.2,1.6-2.6,1.5-4.3c0-1.6-1-2.7-2.6-2.5c-1.3,0.2-2.7,0.7-3.8,1.4
		c-3.1,2.1-5.8,4.7-8,7.7c-0.8,1.1-1.6,2.2-2.1,3.5C268.5,519.7,269.5,520.9,272,520.9z
" fill="#000000"/>
</svg>