<svg xmlns="http://www.w3.org/2000/svg" viewBox="371.927 55.4556 105.5 108.8">
  <path d="M411.4,84c-2.9-0.5-5.9-0.5-8.9-0.6c-1.8-0.1-3.7,0.1-5.5,0.2l-1,0.5c-0.3,1-0.8,1.9-1.5,2.7c1.9,1.4,3,3.3,3.2,5.9
		c0,0.2-0.1,0.3-0.1,0.6c-1.7-0.2-2.9-1.1-3.7-2.5c-0.4-0.7-0.8-1.5-1.1-2.2c-0.4,0.4-0.8,0.7-1.2,1c1.5,2.3,3.1,4.6,6,5.9
		c-2,1-3.3,0.6-4.5-0.3c-1.6-1.3-2.5-2.8-2.9-4.5c-0.4,0.3-0.7,0.5-1,0.7c-0.1,0.1-0.2,0.1-0.3,0.2c0.9,2.7,2.3,4.9,5.4,5.9
		c-2,0.8-3.9,0.4-5.1-1c-1-1.2-1.5-2.7-1.4-4.2c-0.4,0.2-0.9,0.4-1.3,0.6c-0.1,2.1,0.2,4,2.2,5.7c-3.3,0.8-4.1,0.1-4.4-3
		c-0.1-0.6-0.1-1.1,0-1.7c-0.4,0.2-0.8,0.3-1.2,0.4c-0.1,1.1,0.1,2.3,0.4,3.8c-2,0.2-3.5-1.1-3.7-3.2c-0.1,0-0.1,0-0.2,0
		c-0.3,0.1-0.7,0.2-1,0.3c0,0.3-0.1,0.6-0.1,1c-0.3-0.3-0.6-0.5-0.8-0.7c-0.6,0.2-1.3,0.3-1.9,0.3c0.7,0.7,1.4,1.3,2.2,1.9
		c4.1,2.7,8.7,2.9,13.4,2.4c0.6-0.1,1.2-0.1,2.2-0.1c-2.3,2.2-4.3,4-6.2,6c-2.1,2.2-4.1,4.5-5.2,7.4c-1.9,4.9,0.2,10.3,4.9,12.6
		c3.5,1.8,7.3,1.9,11,2c2.3,0.1,4.7,0.2,7.3,0.3c-0.6,0.8-0.9,1.2-1.3,1.6c-2.1,2.3-4.4,4.6-6.4,7c-2.2,2.6-3.7,5.6-3.9,9
		c-0.3,4.7,1.6,9,6,10.4c1.5,0.5,3.1,0.8,4.7,0.9c3.3,0.2,6.5,0.1,9.8,0.2c2.7,0.1,5.1,0.6,6.6,3.3c0.5,0.9,1.5,1.6,2.5,2.2
		c4.9,2.6,11.3,1.2,15.3-2.6c0.7-0.7,1.2-1.8,1.3-2.7c0.9-6.3-2.7-10.6-8.1-12.4c-1.8-0.6-3.8-0.7-5.6-1.1c-3-0.6-6.1-1.2-9.1-2
		c-0.6-0.1-1.2-0.7-2-1.2c1.3-1.2,2.3-2.2,3.4-3.1c2.9-2.3,5.9-4.4,8.7-6.7c2.3-1.9,3.7-4.4,3.6-7.6c-0.3-5.7-3.7-8.9-8.6-10.8
		c-3.7-1.4-7.6-1-11.4-1c-1.2,0-2.5,0.3-3.8-0.4c0.8-0.9,1.6-1.8,2.3-2.6c2.4-2.4,4.9-4.7,7.2-7.2c2.1-2.2,3.7-4.8,3.2-8
		C419.3,88.8,416.2,84.9,411.4,84z M405.9,85c1.2,0.1,2.7,0.1,3.1,1.5c0.5,1.4-0.8,2.4-1.7,3.2c-1,0.8-2.2,1.4-3.3,2.1
		c1.1-2.2,2.1-4.2,1.4-6.5C405.7,85.1,405.8,84.9,405.9,85z M401.5,84.8c1.5-0.2,2.2,0.6,2.7,1.8c0.5,1.4,0,2.9-1.3,3.9
		C402.4,88.7,402,86.8,401.5,84.8z M400.4,86.4c1.4,2.1,1,4.7-0.9,6.4c-0.9-2.6-1.7-5.3-4.1-7.1C397.5,84.8,399.6,85.2,400.4,86.4z
		 M402.6,94.6c2-1.4,4-2.7,5.9-4.3c1.3-1.1,2.1-2.6,1.9-4.6c2.1,0.5,2.4,1.1,1.4,2.5c-1.2,1.5-2.6,2.9-4.2,4.1
		c-2.8,2.2-5.9,4.1-9.3,5.3C399.6,96.6,401.1,95.6,402.6,94.6z M387.7,108c3.1-3.2,6.9-5.7,10.6-8.1c3.6-2.3,7.2-4.7,10.7-7.2
		c1.4-1,2.6-2.5,3.9-3.8c0.5-0.5,0.9-1.1,1.4-1.7c1.3,1.6,1.5,2.3,0.4,3.9c-1.1,1.5-2.2,3-3.6,4.2c-4.5,3.8-9.5,7-14.4,10.2
		c-2.9,1.9-5.8,3.9-8.4,6.1c-1.9,1.6-3.3,3.8-5.1,5.9C383.3,113.6,385.1,110.6,387.7,108z M395,119.6c-0.9,2-1.2,4-0.3,6.5
		C392.1,124.5,392.4,121.3,395,119.6z M395.7,124.2c-0.6-2.2,0.8-5,3.1-6.4c-1.6,2.9-2.8,5.6-0.3,8.4
		C396.9,126.2,396,125.5,395.7,124.2z M399.1,120.7c0.9,3.2,3.6,4.3,5.9,6C399.8,126.5,397.1,123.8,399.1,120.7z M406.9,121
		c1.2,1.1,1.6,2.2,1,3.8c-2.2-2.4-5.4-3.8-5.6-7.9C404,118.4,405.4,119.7,406.9,121z M405,114.6c2.4,0.9,3.2,2.3,3.1,5.2
		C405.2,119.2,403.8,117,405,114.6z M406.2,125.3c-4-0.9-6.4-4.1-5.4-6.5C402.4,120.8,404.2,122.9,406.2,125.3z M403.8,155.5
		c-1.1-0.9-1.2-2.3-1.1-3.6c0.1-0.7,0.5-1.4,0.9-2c1.5-2.2,3.5-3.8,5.8-5.1c0.1,0.1,0.2,0.2,0.2,0.3c-0.8,0.9-1.8,1.7-2.5,2.7
		c-1.8,2.4-3,4.3-0.2,8C405.8,156.2,404.8,156.3,403.8,155.5z M407.8,154.7c-1-0.7-1.6-1.8-1.3-3.1c0.4-2.3,1.9-3.9,3.9-5.1
		c-1,3-1,5.8,1,8.5C409.9,155.8,408.8,155.3,407.8,154.7z M411.1,150.3c1.7,1.8,3.4,3.6,5.1,5.4
		C413.6,156.1,411.1,153.5,411.1,150.3z M413.3,150.7c-1.5-1.6-1.6-3.8-0.4-5.4c1.9,2.1,3.9,4.1,5.7,6.3c1.2,1.3,1.7,3,1.4,4.7
		c-0.2,0.1-0.3,0.2-0.5,0.3C417.4,154.7,415.3,152.8,413.3,150.7z M429.6,146.1c1.6,0.7,3,1.3,4.8,2.1
		C431.1,148.4,430.3,148.1,429.6,146.1z M428.9,148c-0.7,0.2-1.2,0.4-1.7,0.5c-1-1.1-1.9-2.2-2.8-3.3
		C425.8,144.8,427.6,145.8,428.9,148z M436.7,151.6c2.7,2.4,3.8,6-0.2,8.9c-0.6,0.5-1.3,0.9-1.7,1.1c-4.5,2-8.4,1.6-12.2-0.8
		c-1.8-1.2-2.2-2.4-1.6-4.5C423,149.7,431.5,147,436.7,151.6z M424.1,146.7c0.2,0.2,0.4,0.3,0.6,0.5c1.3,1.3,1.2,2.2-0.8,3
		c-1.7-2.7-4.3-4.5-7.1-6.2C419.6,144.1,422,145,424.1,146.7z M421.5,149.1c1.2,1.4,1.2,2.5-0.1,4.1c-1.8-3.2-5.2-5-6.7-8.5
		C417.2,145.9,419.6,147,421.5,149.1z M414,140c-1.8,1.3-3.7,2.6-5.4,3.9c-1.9,1.5-3.8,3-5.5,4.7c-1.3,1.4-1.9,3.3-1.4,5.4
		c0.1,0.2,0,0.5,0,0.7c0,0.1-0.1,0.2-0.2,0.3c-1.5-1.6-1.9-4.3-0.4-6.1c1.5-1.8,3.3-3.6,5.2-5c2.6-1.9,5.4-3.4,8.5-5.3
		C414.4,139.3,414.3,139.8,414,140z M427.8,127.1c-1.5,3.1-4.1,5.3-6.9,7.1c-4.5,2.7-9.1,5.1-13.5,7.9c-2.4,1.5-4.6,3.6-6.7,5.6
		c-1.6,1.5-2.2,3.4-1.7,5.6c0,0.2-0.1,0.5-0.2,0.9c-2.4-1.2-3.4-3.9-2.5-6.6c0.9-2.8,3-4.8,5.4-6.2c4.4-2.8,9-5.3,13.5-7.9
		c3.8-2.2,7.5-4.4,10.5-7.6c1.1-1.2,2-2.7,3-4.1C429,123.6,428.6,125.4,427.8,127.1z M425.3,117.8c0.1-0.4,0.3-0.8,0.6-1.4
		c1.8,2.8,1.4,5.9-0.7,8.3c-2.4,2.7-5.2,4.8-8.3,6.5c-5.1,2.9-10.3,5.7-15.4,8.8c-2.5,1.5-4.5,3.6-6.1,6.6c-0.1-2.6,1-4.3,2.3-5.9
		c2.2-2.6,5-4.6,7.9-6.4c5-3.1,10.1-5.8,14.6-9.6C422.5,122.7,424.3,120.5,425.3,117.8z M423,119.5c-1.1,1.7-2.6,3.4-4.3,4.6
		c-5.2,3.7-10.6,7.2-15.9,10.8c-1,0.7-1.9,1.4-2.8,2.1c-0.1-0.1-0.2-0.2-0.3-0.3c0.9-1.1,1.7-2.2,2.6-3.2c3.3-4,7.5-6.8,11.8-9.5
		c2.1-1.3,4.1-2.9,5.3-5.1c0.8-1.4,1.1-3.1,1.6-4.6C423.6,114.6,424.6,117,423,119.5z M419.1,114.3c0.6,1.2,0.4,2.5-0.4,3.5
		c-1.4,1.6-3.1,2.9-4.7,4.4c-0.2-0.1-0.3-0.3-0.5-0.4c2.7-2.2,3.6-4.9,2.6-8.3C417.4,113.4,418.5,113.2,419.1,114.3z M415.4,115.6
		c0,2.4-1.2,4.2-3,5.6c1.7-2.8-0.1-5.2-0.9-7.7C413.5,112.5,415.4,113.5,415.4,115.6z M410.5,114.9c1.5,2.7,1.4,5.1-0.3,7
		c-0.4-3.4-1.2-6.3-3.4-8.7C408.8,112.9,409.6,113.3,410.5,114.9z M416.2,100.3c-4.1,4-8.3,8.1-12.5,12c-1.1,1-2.6,1.5-3.8,2.3
		c-2.1,1.3-4.2,2.7-6.1,4.2c-0.9,0.7-1.7,1.9-2.1,3c-0.4,1.1-0.2,2.5-0.3,3.8c-3.5-0.6-4-1.5-2.2-4.9c1.7-3.3,4.7-5.2,7.7-7.1
		c3.7-2.4,7.6-4.5,11.3-7c3.8-2.6,7.3-5.6,9.4-10.2C417.6,98.3,417.4,99.2,416.2,100.3z M417.4,94.7c-0.6,2.2-2,3.9-3.6,5.5
		c-3.9,4-8.8,6.6-13.5,9.6c-3.2,2-6.3,4.2-9.2,6.6c-2.2,1.7-4,3.9-4.1,7.1c-2.4-0.8-3.2-2.4-2.6-4.8c0.7-2.8,2.5-4.8,4.8-6.4
		c4.9-3.5,9.9-6.8,14.9-10.3c4.8-3.3,9.4-6.9,13-11.8C418.1,91.8,417.8,93.3,417.4,94.7z

M451.1,57.3c0.7,0.8,2.3,0.9,2.2,2.5c0,0.1,0.3,0.3,0.4,0.3c1.7,0.2,2,1.6,2.6,2.8c0.4,0.8,0.9,1.7,1.5,2.4
		c1.9,2.2,2,4.6,0.8,6.9c-1.3,2.6-3.1,4.9-4.7,7.3c-0.9,1.4-2,2.7-2.9,4.1c-1.5,2.4-1.1,3.3,1.6,3.9c1.9,0.5,3.9,0.7,5.9,0.9
		c3.2,0.3,5.8,1.4,8.4,3.4c1.6,1.3,3.2,2.5,4.7,4c1.6,1.5,2.5,3.1,3,5c1,4,0.7,8-1.4,11.7c-1.3,2.3-2.7,4.6-4,6.9
		c-0.4,0.6-0.7,1.3-1.1,2c1.4,1.1,2.9,1.3,4.4,1.4c1,0,1.8,0.2,2.4,1.1c2.7,3.3,3.6,11.3,1.1,15c-1.4,2.1-3.5,3.1-5.8,3.4
		c-2.7,0.4-5.6,0.2-8.3,0.2c-0.3,0-0.6-0.1-0.9-0.2c-2.8-1.5-5.7-2.7-8.3-4.4c-4.9-3.3-7-8.9-5.6-14.6c0.4-1.6,0.8-3.3,1-4.9
		c0.2-2.2,1-4.2,2.3-6c0.6-0.9,1.1-1.8,1.5-2.8c0.6-1.6,0-3.1-1.6-3.6c-2.2-0.7-4.4-1.1-6.7-1.4c-6.8-1-12.4-6-13.3-13.4
		c-0.4-3.5,0.5-6.8,1.9-9.9c1.8-3.9,3.9-7.6,5.7-11.4c1.1-2.2,2.2-4.5,1.7-7.1c0.4-0.2,0.9-0.4,1.3-0.7c0.2,5-2.9,8.9-5,13.4
		c0.5-0.1,0.7-0.1,0.8-0.2c2.2-2.8,4.5-5.6,5.6-9.1c0.5-1.5,0.8-3.1,0-4.7c0.6-0.3,1.1-0.5,1.7-0.8c0.1,0.4,0.2,0.8,0.3,1.3
		c0.3,4.1-1.6,7.3-3.8,10.4c-2,2.8-4.2,5.3-6.2,8.1c-3.6,5.2-3.7,12.5-0.2,17.2c3.6,4.9,9,5.3,14.5,6.3c-2.7-1.7-5.3-3.1-7.6-4.9
		c-3.9-2.9-5.7-6.8-5.4-11.8c0.3-4.7,2.5-8.5,4.9-12.3c2.3-3.6,4.7-7.3,7-10.9c1-1.6,1.3-3.3,0.5-5.2
		C448.9,58.4,450,57.9,451.1,57.3z M450.4,132.6c0.1-0.2,0.2-0.5,0.2-0.7c0.2-4.6,2.2-8.5,5-12.1c4.2-5.4,8.4-10.7,11.6-16.8
		c1.1-2,2.2-4,2.3-6.4c0-1.4-0.5-2.4-1.4-2.6c-0.9-0.2-1.6,0.5-1.8,2.1c-0.3,1.9-0.9,3.7-2,5.3c-1.7,2.2-3.3,4.5-5.1,6.6
		c-3,3.7-6.1,7.3-8.3,11.5c-1.7,3.1-3.1,6.2-2.9,9.8C448,131.3,448.6,132,450.4,132.6z M473.2,102.5c-0.3,0.5-0.5,0.8-0.7,1.2
		c-0.8,1.5-1.5,3-2.4,4.4c-3.5,5.5-7.1,10.9-10.6,16.3c-2.3,3.5-4.1,7.2-4,11.5c0,3,0,3,3,3.5c0.1,0,0.2,0,0.4-0.1
		c-0.9-3.1-0.2-5.9,1.5-8.5c1.3-1.9,2.7-3.7,3.9-5.7c2.1-3.5,4-7.1,6.2-10.5c1.4-2.2,2.6-4.5,3.1-7.1
		C473.8,105.9,474,104.2,473.2,102.5z M470.9,97.9c-0.5,0.8-1,1.5-1.3,2.2c-2.7,5.5-5.8,10.8-9.7,15.5c-2,2.4-3.9,4.8-5.5,7.4
		c-2.3,3.6-3,7.7-2.6,11.9c0.1,1.2,0.6,2,2.1,2.2c0.1-0.6,0.3-1.2,0.2-1.6c-0.4-1.5-0.1-2.9,0.6-4.1c1.9-3.4,3.8-6.8,5.8-10.1
		c3.3-5.4,6.8-10.6,10.1-16c0.9-1.4,1.3-3.2,1.7-4.8C472.5,99.6,472.4,98.5,470.9,97.9z M453.8,61.7c-1.4,0.3-1.4,1.3-1.7,2.2
		c-0.4,1.3-0.7,2.8-1.5,3.9c-1.8,2.6-3.9,5-5.8,7.5c-2.4,3.2-4.5,6.5-5.5,10.4c-1,4.4,1.8,9.2,5.5,10.5c0-0.1,0.1-0.2,0-0.3
		c-0.2-0.3-0.4-0.6-0.6-0.9c-2.4-3.1-2.9-6.5-1.8-10.2c1-3.2,2.9-5.8,5-8.4c2-2.5,4-5.1,5.7-7.8C454.5,66.6,455,64.3,453.8,61.7z
		 M448.8,102.2c0.1-0.2,0.3-0.3,0.4-0.5c-0.5-0.5-1-1.1-1.6-1.5c-1.3-0.9-2.6-1.7-3.9-2.5c-5.4-3.2-6.8-7.8-5.1-13.6
		c1-3.5,2.9-6.6,5-9.5c2-2.7,4.1-5.3,6.1-7.9c1.3-1.8,2-3.8,2-6.1c0-0.8,0-1.8-1.1-1.9c-1.1-0.1-1.2,0.8-1.3,1.7
		c0,0.1-0.1,0.2-0.1,0.4c0.1,2.1-0.6,4.1-1.7,5.8c-1.9,3-4,5.9-6,9c-2.4,3.8-4.5,7.7-5,12.3c-0.4,4.1,0.7,7.8,4.2,10.1
		C443.3,99.7,446.1,100.8,448.8,102.2z M448.9,120.5c1.6-2.4,3.2-5,5.1-7.4c2.7-3.5,5.6-6.8,8.3-10.2c1.6-2,2.9-4.3,3.3-7
		c0.4-2.8-1.1-5.1-3.6-5.2c1.4,4.9-0.1,9.2-3.2,12.9c-1.6,2-3.4,4-5.1,5.9C450.8,112.8,449.2,116.5,448.9,120.5z M446.4,94.5
		c-1.3-4.3-0.7-8.4,1.6-12.2c1.8-3,3.9-5.8,5.8-8.8c1.1-1.8,2.1-3.8,2.9-5.8c0.5-1,0.2-2.1-0.9-2.9c-0.5,1.3-0.8,2.5-1.4,3.5
		c-2,3.1-4.2,6.2-6.4,9.3c-2.1,2.9-3.9,5.9-4.3,9.5C443.2,90,443.8,92.6,446.4,94.5z M453.9,107.5c0.2,0.1,0.4,0.2,0.7,0.4
		c2-3,4.1-6,6-9.1c1-1.7,1.3-3.7,0.9-5.7c-0.4-2-1.8-3-3.8-2.8c0.3,0.8,0.5,1.5,0.7,2.3c0.2,1.1,0.5,2.2,0.5,3.3
		c0,2.8-1.2,5.2-2.6,7.6C455.5,104.8,454.7,106.2,453.9,107.5z M457.6,69.6c-1.5,2.3-3,4.5-4.5,6.8c-1.6,2.4-3.3,4.8-4.8,7.2
		c-1.1,1.8-1.6,3.9-1.3,6.1c0.5-0.9,0.7-2,1.2-2.8c2.3-3.9,4.8-7.8,7.2-11.7C456.4,73.4,457.6,71.7,457.6,69.6z M474.6,138.7
		c-2.3-0.3-2.7-2-3-3.6c-0.5-3.4-0.2-6.6,3.3-8.6c-0.2-0.4-0.4-0.7-0.6-1c-0.2-0.3-0.5-0.5-0.7-0.8c-3.5,3.9-4,10.1-2.1,14.4
		C472.3,140.5,473.3,140.4,474.6,138.7z M455.6,102.5c2-3.5,3-6.7,1.5-10.4c-0.8-2-1.7-2.7-4-2.7C454.9,91.8,456.9,93.5,455.6,102.5
		z M469.1,135.8c0.1-1.9,0.2-3.7-1.3-5.3c-1-1.1-1.4-2.8-2.2-4.3C463.8,129.2,465.8,134.6,469.1,135.8z M473.8,136.9
		c2.3-2.2,2.4-6,0.3-8.4C472.3,130.7,472.2,134.3,473.8,136.9z M462.8,130.6c-1.8,2.8-0.1,8.7,2.8,9.9c0.6,0.2,1.3,0.1,1.9,0.1
		C464.3,137.9,463.4,134.4,462.8,130.6z M448.8,90.8c-0.9,4.1,2.3,6.1,4.4,8.9C453.6,97.6,452.1,94.7,448.8,90.8z M461.1,132.1
		c-0.4,0.4-0.6,0.5-0.7,0.7c-1,1.8-1,3.8-0.6,5.7c0.4,2.1,2.3,3.3,4.5,2.8C461.6,139.4,460.7,136.8,461.1,132.1z M449.5,88.6
		c1.8,3.2,3.6,6.4,5.4,9.6C455.9,95.1,453.4,90.2,449.5,88.6z M469.7,139.5c0.1-0.2,0.3-0.4,0.4-0.6c-1.6-1.5-3.2-3-4.8-4.5
		c-0.1,0.1-0.2,0.2-0.3,0.3C465.9,136.9,467,139,469.7,139.5z M467.3,126.3c-0.1,0-0.1,0-0.2,0.1c0.5,0.9,0.9,1.9,1.4,2.8
		c0.2,0.2,0.8,0.2,1.2,0.3c-0.1-0.4-0.1-0.8-0.3-1.1C468.7,127.6,468,126.9,467.3,126.3z
M433.4,161.1c-3.2,1.4-6.9,0.9-9.2-1.3c-2-1.9-1.8-4.5,0-6.6c2.2-2.4,7.6-3.2,10.4-1.9c3.4,1.6,4.1,5,1.4,7.7
		C435.2,159.7,434.3,160.4,433.4,161.1z M427.2,152.6c-3.4,1.6-4,4.1-1.7,6.5c0.6,0.6,1.5,1.1,2.4,1.3c2.7,0.5,5.2-0.2,7.2-2.1
		c2-1.8,1.4-4.8-1.2-5.9C431.5,151.4,429.2,151.8,427.2,152.6z
M386.9,93.9c-6.9,3.4-13.2,3.6-14.7,0.7c-1.4-3,2.7-7.8,9.6-11.1c6.9-3.4,13.2-3.6,14.7-0.7
		C397.9,85.7,393.8,90.5,386.9,93.9z M382.5,84.8c-6.3,3.1-9.8,7.2-8.9,9.1c0.9,1.8,6.3,1.7,12.6-1.4c6.3-3.1,9.8-7.2,8.9-9.1
		C394.2,81.6,388.8,81.7,382.5,84.8z
M385.5,91.7c-4.4,2.1-8.5,2.3-9.4,0.4c-0.9-1.9,1.7-5,6.1-7.1c4.4-2.1,8.5-2.3,9.4-0.4C392.6,86.5,390,89.6,385.5,91.7z
		 M382.7,85.9c-4.1,2-6.3,4.6-5.7,5.8c0.6,1.2,4,1.1,8.1-0.9c4.1-2,6.3-4.6,5.7-5.8C390.2,83.9,386.8,84,382.7,85.9z
M446,61.1c-2,0.9-6.6,3-7.4,1.3c-0.8-1.7,3.6-4.1,5.6-5c2-0.9,6.6-3,7.4-1.3C452.4,57.8,448,60.2,446,61.1z M440.4,61.5
		c0.9-0.1,2.6-0.6,4.9-1.8c2.3-1.1,3.7-2.1,4.4-2.8c-0.9,0.1-2.6,0.6-4.9,1.8C442.6,59.9,441.1,60.9,440.4,61.5z" fill="#000000"/>
</svg>