<svg xmlns="http://www.w3.org/2000/svg" viewBox="-0.00800000037997961 -0.10000000149011612 162.4867706298828 158.62612915039062">
  <path d="M162,30.4c-0.3-17.8-8.7-26.8-24.8-29.1c-0.7,0.2-1.5,0.2-2.4-0.1c-0.5-0.1-0.9-0.2-1.4-0.4c-0.6,0-1.1-0.1-1.7-0.1
		c-4-0.2-8-0.5-12-0.8c-5.1,0.3-10.3,1.1-15.3,1.4c-11,0.6-22,0.6-33,0.8C59.8,2.2,48,2.5,36.2,2.7C29,2.8,22.3,3,15.8,4.3
		c-8.9,4-13.9,12-14.6,22.2C0.1,44.7,0.9,63.1,0.9,81.4c-0.3,0-0.6,0-0.8,0c0,16.8-0.3,33.7,0.1,50.5c0.3,14.9,8.5,24.7,23.1,25.2
		c34.6,1.2,69.3,2.3,103.7,0.4c24-1.3,34.9-13.4,35.2-33.1C162.6,93.1,162.6,61.8,162,30.4z M115.8,61.8c12.3,0,24.5-0.3,36.8,0.3
		c2.1,0.1,5.6,3.8,5.6,5.8c0,16.8-0.6,33.6-1.2,50.4c-1,28.5-10.6,38.4-39.3,38.2c-22.4-0.1-44.8-1.9-67.2-2.9
		c-2.5-0.1-4.9,0.7-7.4,0.9c-26.8,2.4-36.2-4.6-38.8-32.4C2.7,104.5,3.6,86.5,4,68.7c0.1-2.2,4-6,6.5-6.2c10.8-1,21.6-0.9,32.4-1.3
		c1.5-0.1,2.9-0.5,4.2-3.1c-11.7,0-23.3,0.5-35-0.4c-2.6-0.2-6.2-4.5-6.9-7.5C4,45.4,4.9,40,4.6,34.9C3.6,16.4,9,7.6,27.2,6.5
		c36-2.2,72.1-2.9,108.2-2.8c15.4,0.1,21.7,11.6,22.8,26c2.1,28.1,2.1,28.1-25.6,28.9c-5.6,0.2-11.3,0-17,0
		C115.7,59.7,115.7,60.7,115.8,61.8z
M118.7,78.4c-0.6,22.6-16,39.2-35.9,38.8c-21.9-0.5-39.5-17-38.9-36.7C44.5,58.9,61.5,43,83.4,43.6
		C102.9,44.2,119.2,60.3,118.7,78.4z M81.2,45.2c-17.9,0-32.7,15.9-32.8,35.2c-0.1,18.5,15.2,33.2,34.6,33.3
		c17.3,0.1,31.2-15.4,31.2-34.8C114.1,60.4,99.4,45.2,81.2,45.2z
M58,68c6.1-13.2,21.7-18.7,34.5-12.3c14.4,7.2,20.2,22.9,13.3,36.1c-7.5,14.3-24.1,20-37.2,12.6C55.2,96.8,50.5,80.4,58,68
		c-0.3,1.7-0.6,3.5-1.1,5.2c-3.1,11.9,3.5,24.7,15.7,29.4c13.2,5.1,23.5,0,30.1-11.3c7-11.8,3.1-22.4-7.6-30
		C80.8,51.1,68.7,56.5,58,68z
M129.7,14.1c-2.6,0.1-5.5,0.3-7.3,2.1
		c-2,1.9-2.2,4.9-2.3,7.6c-0.1,2.5-0.2,5-0.3,7.5c-0.1,1.3-0.1,2.5,0.3,3.7c0.7,2.4,3,4.1,5.5,4.7c2.4,0.6,5,0.4,7.5,0.2
		c2.5-0.2,5-0.4,7.5-0.6c1-0.1,2.1-0.2,3.1-0.7c2.6-1.4,2.8-5,2.7-7.9c-0.1-3.1-0.3-6.3-0.4-9.4c-0.1-1.6-0.2-3.3-0.8-4.8
		C143,11.4,134.1,13.9,129.7,14.1z

" fill="#000000"/>
</svg>